<svg xmlns="http://www.w3.org/2000/svg" version="1.1" xmlns:xlink="http://www.w3.org/1999/xlink" xmlns:svgjs="http://svgjs.dev/svgjs" width="1440" height="560" preserveAspectRatio="none" viewBox="0 0 1440 560"><g mask="url(&quot;#SvgjsMask1016&quot;)" fill="none"><path d="M-55.83 373.64L-55.83 373.64" stroke="rgba(182, 209, 239, 1)" stroke-width="1.5"></path><path d="M-55.83 373.64L101.81 368.1" stroke="rgba(182, 209, 239, 1)" stroke-width="1.5"></path><path d="M-55.83 373.64L-65.99 538.42" stroke="rgba(182, 209, 239, 1)" stroke-width="1.5"></path><path d="M-55.83 373.64L49.09 539.66" stroke="rgba(182, 209, 239, 1)" stroke-width="1.5"></path><path d="M-55.83 373.64L198.14 380.38" stroke="rgba(182, 209, 239, 1)" stroke-width="1.5"></path><path d="M-65.99 538.42L-65.99 538.42" stroke="rgba(182, 209, 239, 1)" stroke-width="1.5"></path><path d="M-65.99 538.42L49.09 539.66" stroke="rgba(182, 209, 239, 1)" stroke-width="1.5"></path><path d="M-65.99 538.42L-80.64 680.32" stroke="rgba(182, 209, 239, 1)" stroke-width="1.5"></path><path d="M-80.64 680.32L-80.64 680.32" stroke="rgba(182, 209, 239, 1)" stroke-width="1.5"></path><path d="M101.81 368.1L101.81 368.1" stroke="rgba(182, 209, 239, 1)" stroke-width="1.5"></path><path d="M101.81 368.1L198.14 380.38" stroke="rgba(182, 209, 239, 1)" stroke-width="1.5"></path><path d="M49.09 539.66L49.09 539.66" stroke="rgba(182, 209, 239, 1)" stroke-width="1.5"></path><path d="M49.09 539.66L85.55 693.21" stroke="rgba(182, 209, 239, 1)" stroke-width="1.5"></path><path d="M85.55 693.21L85.55 693.21" stroke="rgba(182, 209, 239, 1)" stroke-width="1.5"></path><path d="M85.55 693.21L209.53 709.21" stroke="rgba(182, 209, 239, 1)" stroke-width="1.5"></path><path d="M85.55 693.21L-80.64 680.32" stroke="rgba(182, 209, 239, 1)" stroke-width="1.5"></path><path d="M85.55 693.21L-65.99 538.42" stroke="rgba(182, 209, 239, 1)" stroke-width="1.5"></path><path d="M85.55 693.21L216.13 493.54" stroke="rgba(182, 209, 239, 1)" stroke-width="1.5"></path><path d="M85.55 693.21L385.55 647.88" stroke="rgba(182, 209, 239, 1)" stroke-width="1.5"></path><path d="M198.14 380.38L198.14 380.38" stroke="rgba(182, 209, 239, 1)" stroke-width="1.5"></path><path d="M198.14 380.38L216.13 493.54" stroke="rgba(182, 209, 239, 1)" stroke-width="1.5"></path><path d="M216.13 493.54L216.13 493.54" stroke="rgba(182, 209, 239, 1)" stroke-width="1.5"></path><path d="M216.13 493.54L101.81 368.1" stroke="rgba(182, 209, 239, 1)" stroke-width="1.5"></path><path d="M216.13 493.54L49.09 539.66" stroke="rgba(182, 209, 239, 1)" stroke-width="1.5"></path><path d="M209.53 709.21L209.53 709.21" stroke="rgba(182, 209, 239, 1)" stroke-width="1.5"></path><path d="M209.53 709.21L385.55 647.88" stroke="rgba(182, 209, 239, 1)" stroke-width="1.5"></path><path d="M209.53 709.21L216.13 493.54" stroke="rgba(182, 209, 239, 1)" stroke-width="1.5"></path><path d="M407.24 344.7L407.24 344.7" stroke="rgba(182, 209, 239, 1)" stroke-width="1.5"></path><path d="M407.24 344.7L492.85 373.82" stroke="rgba(182, 209, 239, 1)" stroke-width="1.5"></path><path d="M407.24 344.7L403.55 514.9" stroke="rgba(182, 209, 239, 1)" stroke-width="1.5"></path><path d="M403.55 514.9L403.55 514.9" stroke="rgba(182, 209, 239, 1)" stroke-width="1.5"></path><path d="M403.55 514.9L536.11 496.28" stroke="rgba(182, 209, 239, 1)" stroke-width="1.5"></path><path d="M403.55 514.9L385.55 647.88" stroke="rgba(182, 209, 239, 1)" stroke-width="1.5"></path><path d="M403.55 514.9L492.85 373.82" stroke="rgba(182, 209, 239, 1)" stroke-width="1.5"></path><path d="M403.55 514.9L216.13 493.54" stroke="rgba(182, 209, 239, 1)" stroke-width="1.5"></path><path d="M403.55 514.9L527.49 689.35" stroke="rgba(182, 209, 239, 1)" stroke-width="1.5"></path><path d="M385.55 647.88L385.55 647.88" stroke="rgba(182, 209, 239, 1)" stroke-width="1.5"></path><path d="M385.55 647.88L527.49 689.35" stroke="rgba(182, 209, 239, 1)" stroke-width="1.5"></path><path d="M385.55 647.88L536.11 496.28" stroke="rgba(182, 209, 239, 1)" stroke-width="1.5"></path><path d="M385.55 647.88L216.13 493.54" stroke="rgba(182, 209, 239, 1)" stroke-width="1.5"></path><path d="M385.55 647.88L654.27 689.77" stroke="rgba(182, 209, 239, 1)" stroke-width="1.5"></path><path d="M492.85 373.82L492.85 373.82" stroke="rgba(182, 209, 239, 1)" stroke-width="1.5"></path><path d="M492.85 373.82L536.11 496.28" stroke="rgba(182, 209, 239, 1)" stroke-width="1.5"></path><path d="M492.85 373.82L672.06 380.65" stroke="rgba(182, 209, 239, 1)" stroke-width="1.5"></path><path d="M536.11 496.28L536.11 496.28" stroke="rgba(182, 209, 239, 1)" stroke-width="1.5"></path><path d="M536.11 496.28L671.16 561.36" stroke="rgba(182, 209, 239, 1)" stroke-width="1.5"></path><path d="M527.49 689.35L527.49 689.35" stroke="rgba(182, 209, 239, 1)" stroke-width="1.5"></path><path d="M527.49 689.35L654.27 689.77" stroke="rgba(182, 209, 239, 1)" stroke-width="1.5"></path><path d="M527.49 689.35L671.16 561.36" stroke="rgba(182, 209, 239, 1)" stroke-width="1.5"></path><path d="M527.49 689.35L536.11 496.28" stroke="rgba(182, 209, 239, 1)" stroke-width="1.5"></path><path d="M672.06 380.65L672.06 380.65" stroke="rgba(182, 209, 239, 1)" stroke-width="1.5"></path><path d="M672.06 380.65L812.38 344.21" stroke="rgba(182, 209, 239, 1)" stroke-width="1.5"></path><path d="M672.06 380.65L536.11 496.28" stroke="rgba(182, 209, 239, 1)" stroke-width="1.5"></path><path d="M671.16 561.36L671.16 561.36" stroke="rgba(182, 209, 239, 1)" stroke-width="1.5"></path><path d="M671.16 561.36L654.27 689.77" stroke="rgba(182, 209, 239, 1)" stroke-width="1.5"></path><path d="M654.27 689.77L654.27 689.77" stroke="rgba(182, 209, 239, 1)" stroke-width="1.5"></path><path d="M654.27 689.77L811.94 694.9" stroke="rgba(182, 209, 239, 1)" stroke-width="1.5"></path><path d="M654.27 689.77L536.11 496.28" stroke="rgba(182, 209, 239, 1)" stroke-width="1.5"></path><path d="M841.02 240.96L841.02 240.96" stroke="rgba(182, 209, 239, 1)" stroke-width="1.5"></path><path d="M841.02 240.96L944.63 214.91" stroke="rgba(182, 209, 239, 1)" stroke-width="1.5"></path><path d="M841.02 240.96L812.38 344.21" stroke="rgba(182, 209, 239, 1)" stroke-width="1.5"></path><path d="M841.02 240.96L985.54 110.64" stroke="rgba(182, 209, 239, 1)" stroke-width="1.5"></path><path d="M841.02 240.96L672.06 380.65" stroke="rgba(182, 209, 239, 1)" stroke-width="1.5"></path><path d="M841.02 240.96L848.21 492.91" stroke="rgba(182, 209, 239, 1)" stroke-width="1.5"></path><path d="M812.38 344.21L812.38 344.21" stroke="rgba(182, 209, 239, 1)" stroke-width="1.5"></path><path d="M812.38 344.21L848.21 492.91" stroke="rgba(182, 209, 239, 1)" stroke-width="1.5"></path><path d="M848.21 492.91L848.21 492.91" stroke="rgba(182, 209, 239, 1)" stroke-width="1.5"></path><path d="M848.21 492.91L972.23 510.12" stroke="rgba(182, 209, 239, 1)" stroke-width="1.5"></path><path d="M848.21 492.91L671.16 561.36" stroke="rgba(182, 209, 239, 1)" stroke-width="1.5"></path><path d="M848.21 492.91L811.94 694.9" stroke="rgba(182, 209, 239, 1)" stroke-width="1.5"></path><path d="M811.94 694.9L811.94 694.9" stroke="rgba(182, 209, 239, 1)" stroke-width="1.5"></path><path d="M811.94 694.9L671.16 561.36" stroke="rgba(182, 209, 239, 1)" stroke-width="1.5"></path><path d="M811.94 694.9L972.23 510.12" stroke="rgba(182, 209, 239, 1)" stroke-width="1.5"></path><path d="M811.94 694.9L527.49 689.35" stroke="rgba(182, 209, 239, 1)" stroke-width="1.5"></path><path d="M811.94 694.9L1107.23 703.11" stroke="rgba(182, 209, 239, 1)" stroke-width="1.5"></path><path d="M980.59 -87.5L980.59 -87.5" stroke="rgba(182, 209, 239, 1)" stroke-width="1.5"></path><path d="M980.59 -87.5L985.54 110.64" stroke="rgba(182, 209, 239, 1)" stroke-width="1.5"></path><path d="M980.59 -87.5L1099.5 98.17" stroke="rgba(182, 209, 239, 1)" stroke-width="1.5"></path><path d="M980.59 -87.5L1243.88 -70.5" stroke="rgba(182, 209, 239, 1)" stroke-width="1.5"></path><path d="M985.54 110.64L985.54 110.64" stroke="rgba(182, 209, 239, 1)" stroke-width="1.5"></path><path d="M985.54 110.64L944.63 214.91" stroke="rgba(182, 209, 239, 1)" stroke-width="1.5"></path><path d="M985.54 110.64L1099.5 98.17" stroke="rgba(182, 209, 239, 1)" stroke-width="1.5"></path><path d="M985.54 110.64L1162.36 241.09" stroke="rgba(182, 209, 239, 1)" stroke-width="1.5"></path><path d="M985.54 110.64L1140.97 355.76" stroke="rgba(182, 209, 239, 1)" stroke-width="1.5"></path><path d="M944.63 214.91L944.63 214.91" stroke="rgba(182, 209, 239, 1)" stroke-width="1.5"></path><path d="M944.63 214.91L812.38 344.21" stroke="rgba(182, 209, 239, 1)" stroke-width="1.5"></path><path d="M972.23 510.12L972.23 510.12" stroke="rgba(182, 209, 239, 1)" stroke-width="1.5"></path><path d="M972.23 510.12L1138.55 510.78" stroke="rgba(182, 209, 239, 1)" stroke-width="1.5"></path><path d="M972.23 510.12L1140.97 355.76" stroke="rgba(182, 209, 239, 1)" stroke-width="1.5"></path><path d="M972.23 510.12L812.38 344.21" stroke="rgba(182, 209, 239, 1)" stroke-width="1.5"></path><path d="M972.23 510.12L1107.23 703.11" stroke="rgba(182, 209, 239, 1)" stroke-width="1.5"></path><path d="M1099.5 98.17L1099.5 98.17" stroke="rgba(182, 209, 239, 1)" stroke-width="1.5"></path><path d="M1099.5 98.17L1162.36 241.09" stroke="rgba(182, 209, 239, 1)" stroke-width="1.5"></path><path d="M1099.5 98.17L944.63 214.91" stroke="rgba(182, 209, 239, 1)" stroke-width="1.5"></path><path d="M1099.5 98.17L1290.58 52.73" stroke="rgba(182, 209, 239, 1)" stroke-width="1.5"></path><path d="M1099.5 98.17L1284.1 201.99" stroke="rgba(182, 209, 239, 1)" stroke-width="1.5"></path><path d="M1162.36 241.09L1162.36 241.09" stroke="rgba(182, 209, 239, 1)" stroke-width="1.5"></path><path d="M1162.36 241.09L1140.97 355.76" stroke="rgba(182, 209, 239, 1)" stroke-width="1.5"></path><path d="M1162.36 241.09L1284.1 201.99" stroke="rgba(182, 209, 239, 1)" stroke-width="1.5"></path><path d="M1162.36 241.09L1289.31 383.42" stroke="rgba(182, 209, 239, 1)" stroke-width="1.5"></path><path d="M1162.36 241.09L944.63 214.91" stroke="rgba(182, 209, 239, 1)" stroke-width="1.5"></path><path d="M1140.97 355.76L1140.97 355.76" stroke="rgba(182, 209, 239, 1)" stroke-width="1.5"></path><path d="M1140.97 355.76L1289.31 383.42" stroke="rgba(182, 209, 239, 1)" stroke-width="1.5"></path><path d="M1140.97 355.76L1138.55 510.78" stroke="rgba(182, 209, 239, 1)" stroke-width="1.5"></path><path d="M1138.55 510.78L1138.55 510.78" stroke="rgba(182, 209, 239, 1)" stroke-width="1.5"></path><path d="M1138.55 510.78L1245.04 489.88" stroke="rgba(182, 209, 239, 1)" stroke-width="1.5"></path><path d="M1138.55 510.78L1107.23 703.11" stroke="rgba(182, 209, 239, 1)" stroke-width="1.5"></path><path d="M1107.23 703.11L1107.23 703.11" stroke="rgba(182, 209, 239, 1)" stroke-width="1.5"></path><path d="M1107.23 703.11L1290.9 655.41" stroke="rgba(182, 209, 239, 1)" stroke-width="1.5"></path><path d="M1107.23 703.11L1245.04 489.88" stroke="rgba(182, 209, 239, 1)" stroke-width="1.5"></path><path d="M1243.88 -70.5L1243.88 -70.5" stroke="rgba(182, 209, 239, 1)" stroke-width="1.5"></path><path d="M1243.88 -70.5L1290.58 52.73" stroke="rgba(182, 209, 239, 1)" stroke-width="1.5"></path><path d="M1243.88 -70.5L1456.95 -110.02" stroke="rgba(182, 209, 239, 1)" stroke-width="1.5"></path><path d="M1243.88 -70.5L1099.5 98.17" stroke="rgba(182, 209, 239, 1)" stroke-width="1.5"></path><path d="M1243.88 -70.5L1447.76 39.4" stroke="rgba(182, 209, 239, 1)" stroke-width="1.5"></path><path d="M1290.58 52.73L1290.58 52.73" stroke="rgba(182, 209, 239, 1)" stroke-width="1.5"></path><path d="M1284.1 201.99L1284.1 201.99" stroke="rgba(182, 209, 239, 1)" stroke-width="1.5"></path><path d="M1284.1 201.99L1401.48 241.18" stroke="rgba(182, 209, 239, 1)" stroke-width="1.5"></path><path d="M1284.1 201.99L1290.58 52.73" stroke="rgba(182, 209, 239, 1)" stroke-width="1.5"></path><path d="M1284.1 201.99L1289.31 383.42" stroke="rgba(182, 209, 239, 1)" stroke-width="1.5"></path><path d="M1284.1 201.99L1419.28 359.32" stroke="rgba(182, 209, 239, 1)" stroke-width="1.5"></path><path d="M1289.31 383.42L1289.31 383.42" stroke="rgba(182, 209, 239, 1)" stroke-width="1.5"></path><path d="M1289.31 383.42L1245.04 489.88" stroke="rgba(182, 209, 239, 1)" stroke-width="1.5"></path><path d="M1289.31 383.42L1419.28 359.32" stroke="rgba(182, 209, 239, 1)" stroke-width="1.5"></path><path d="M1289.31 383.42L1398.94 515.94" stroke="rgba(182, 209, 239, 1)" stroke-width="1.5"></path><path d="M1245.04 489.88L1245.04 489.88" stroke="rgba(182, 209, 239, 1)" stroke-width="1.5"></path><path d="M1245.04 489.88L1398.94 515.94" stroke="rgba(182, 209, 239, 1)" stroke-width="1.5"></path><path d="M1245.04 489.88L1140.97 355.76" stroke="rgba(182, 209, 239, 1)" stroke-width="1.5"></path><path d="M1245.04 489.88L1290.9 655.41" stroke="rgba(182, 209, 239, 1)" stroke-width="1.5"></path><path d="M1290.9 655.41L1290.9 655.41" stroke="rgba(182, 209, 239, 1)" stroke-width="1.5"></path><path d="M1290.9 655.41L1457.37 705.96" stroke="rgba(182, 209, 239, 1)" stroke-width="1.5"></path><path d="M1290.9 655.41L1398.94 515.94" stroke="rgba(182, 209, 239, 1)" stroke-width="1.5"></path><path d="M1290.9 655.41L1138.55 510.78" stroke="rgba(182, 209, 239, 1)" stroke-width="1.5"></path><path d="M1456.95 -110.02L1456.95 -110.02" stroke="rgba(182, 209, 239, 1)" stroke-width="1.5"></path><path d="M1456.95 -110.02L1447.76 39.4" stroke="rgba(182, 209, 239, 1)" stroke-width="1.5"></path><path d="M1447.76 39.4L1447.76 39.4" stroke="rgba(182, 209, 239, 1)" stroke-width="1.5"></path><path d="M1447.76 39.4L1574.55 83.98" stroke="rgba(182, 209, 239, 1)" stroke-width="1.5"></path><path d="M1447.76 39.4L1290.58 52.73" stroke="rgba(182, 209, 239, 1)" stroke-width="1.5"></path><path d="M1401.48 241.18L1401.48 241.18" stroke="rgba(182, 209, 239, 1)" stroke-width="1.5"></path><path d="M1401.48 241.18L1419.28 359.32" stroke="rgba(182, 209, 239, 1)" stroke-width="1.5"></path><path d="M1401.48 241.18L1548.1 208.42" stroke="rgba(182, 209, 239, 1)" stroke-width="1.5"></path><path d="M1401.48 241.18L1289.31 383.42" stroke="rgba(182, 209, 239, 1)" stroke-width="1.5"></path><path d="M1401.48 241.18L1577.04 350.87" stroke="rgba(182, 209, 239, 1)" stroke-width="1.5"></path><path d="M1401.48 241.18L1447.76 39.4" stroke="rgba(182, 209, 239, 1)" stroke-width="1.5"></path><path d="M1419.28 359.32L1419.28 359.32" stroke="rgba(182, 209, 239, 1)" stroke-width="1.5"></path><path d="M1419.28 359.32L1398.94 515.94" stroke="rgba(182, 209, 239, 1)" stroke-width="1.5"></path><path d="M1419.28 359.32L1577.04 350.87" stroke="rgba(182, 209, 239, 1)" stroke-width="1.5"></path><path d="M1419.28 359.32L1543.06 511.29" stroke="rgba(182, 209, 239, 1)" stroke-width="1.5"></path><path d="M1419.28 359.32L1548.1 208.42" stroke="rgba(182, 209, 239, 1)" stroke-width="1.5"></path><path d="M1398.94 515.94L1398.94 515.94" stroke="rgba(182, 209, 239, 1)" stroke-width="1.5"></path><path d="M1398.94 515.94L1543.06 511.29" stroke="rgba(182, 209, 239, 1)" stroke-width="1.5"></path><path d="M1457.37 705.96L1457.37 705.96" stroke="rgba(182, 209, 239, 1)" stroke-width="1.5"></path><path d="M1457.37 705.96L1544.14 660.04" stroke="rgba(182, 209, 239, 1)" stroke-width="1.5"></path><path d="M1457.37 705.96L1398.94 515.94" stroke="rgba(182, 209, 239, 1)" stroke-width="1.5"></path><path d="M1457.37 705.96L1543.06 511.29" stroke="rgba(182, 209, 239, 1)" stroke-width="1.5"></path><path d="M1574.55 83.98L1574.55 83.98" stroke="rgba(182, 209, 239, 1)" stroke-width="1.5"></path><path d="M1574.55 83.98L1548.1 208.42" stroke="rgba(182, 209, 239, 1)" stroke-width="1.5"></path><path d="M1574.55 83.98L1456.95 -110.02" stroke="rgba(182, 209, 239, 1)" stroke-width="1.5"></path><path d="M1574.55 83.98L1401.48 241.18" stroke="rgba(182, 209, 239, 1)" stroke-width="1.5"></path><path d="M1574.55 83.98L1577.04 350.87" stroke="rgba(182, 209, 239, 1)" stroke-width="1.5"></path><path d="M1548.1 208.42L1548.1 208.42" stroke="rgba(182, 209, 239, 1)" stroke-width="1.5"></path><path d="M1548.1 208.42L1577.04 350.87" stroke="rgba(182, 209, 239, 1)" stroke-width="1.5"></path><path d="M1548.1 208.42L1447.76 39.4" stroke="rgba(182, 209, 239, 1)" stroke-width="1.5"></path><path d="M1577.04 350.87L1577.04 350.87" stroke="rgba(182, 209, 239, 1)" stroke-width="1.5"></path><path d="M1543.06 511.29L1543.06 511.29" stroke="rgba(182, 209, 239, 1)" stroke-width="1.5"></path><path d="M1543.06 511.29L1544.14 660.04" stroke="rgba(182, 209, 239, 1)" stroke-width="1.5"></path><path d="M1543.06 511.29L1577.04 350.87" stroke="rgba(182, 209, 239, 1)" stroke-width="1.5"></path><path d="M1544.14 660.04L1544.14 660.04" stroke="rgba(182, 209, 239, 1)" stroke-width="1.5"></path><path d="M1544.14 660.04L1398.94 515.94" stroke="rgba(182, 209, 239, 1)" stroke-width="1.5"></path><path d="M1544.14 660.04L1290.9 655.41" stroke="rgba(182, 209, 239, 1)" stroke-width="1.5"></path><circle r="5" cx="-55.83" cy="373.64" fill="rgba(182, 209, 239, 1)"></circle><circle r="5" cx="-65.99" cy="538.42" fill="rgba(182, 209, 239, 1)"></circle><circle r="5" cx="-80.64" cy="680.32" fill="rgba(182, 209, 239, 1)"></circle><circle r="5" cx="101.81" cy="368.1" fill="rgba(182, 209, 239, 1)"></circle><circle r="5" cx="49.09" cy="539.66" fill="rgba(182, 209, 239, 1)"></circle><circle r="5" cx="85.55" cy="693.21" fill="rgba(182, 209, 239, 1)"></circle><circle r="5" cx="198.14" cy="380.38" fill="rgba(182, 209, 239, 1)"></circle><circle r="5" cx="216.13" cy="493.54" fill="rgba(182, 209, 239, 1)"></circle><circle r="5" cx="209.53" cy="709.21" fill="rgba(182, 209, 239, 1)"></circle><circle r="5" cx="407.24" cy="344.7" fill="rgba(182, 209, 239, 1)"></circle><circle r="5" cx="403.55" cy="514.9" fill="rgba(182, 209, 239, 1)"></circle><circle r="5" cx="385.55" cy="647.88" fill="rgba(182, 209, 239, 1)"></circle><circle r="5" cx="492.85" cy="373.82" fill="rgba(182, 209, 239, 1)"></circle><circle r="5" cx="536.11" cy="496.28" fill="rgba(182, 209, 239, 1)"></circle><circle r="5" cx="527.49" cy="689.35" fill="rgba(182, 209, 239, 1)"></circle><circle r="5" cx="672.06" cy="380.65" fill="rgba(182, 209, 239, 1)"></circle><circle r="5" cx="671.16" cy="561.36" fill="rgba(182, 209, 239, 1)"></circle><circle r="5" cx="654.27" cy="689.77" fill="rgba(182, 209, 239, 1)"></circle><circle r="5" cx="841.02" cy="240.96" fill="rgba(182, 209, 239, 1)"></circle><circle r="5" cx="812.38" cy="344.21" fill="rgba(182, 209, 239, 1)"></circle><circle r="5" cx="848.21" cy="492.91" fill="rgba(182, 209, 239, 1)"></circle><circle r="5" cx="811.94" cy="694.9" fill="rgba(182, 209, 239, 1)"></circle><circle r="5" cx="980.59" cy="-87.5" fill="rgba(182, 209, 239, 1)"></circle><circle r="5" cx="985.54" cy="110.64" fill="rgba(182, 209, 239, 1)"></circle><circle r="5" cx="944.63" cy="214.91" fill="rgba(182, 209, 239, 1)"></circle><circle r="5" cx="972.23" cy="510.12" fill="rgba(182, 209, 239, 1)"></circle><circle r="5" cx="1099.5" cy="98.17" fill="rgba(182, 209, 239, 1)"></circle><circle r="5" cx="1162.36" cy="241.09" fill="rgba(182, 209, 239, 1)"></circle><circle r="5" cx="1140.97" cy="355.76" fill="rgba(182, 209, 239, 1)"></circle><circle r="5" cx="1138.55" cy="510.78" fill="rgba(182, 209, 239, 1)"></circle><circle r="5" cx="1107.23" cy="703.11" fill="rgba(182, 209, 239, 1)"></circle><circle r="5" cx="1243.88" cy="-70.5" fill="rgba(182, 209, 239, 1)"></circle><circle r="5" cx="1290.58" cy="52.73" fill="rgba(182, 209, 239, 1)"></circle><circle r="5" cx="1284.1" cy="201.99" fill="rgba(182, 209, 239, 1)"></circle><circle r="5" cx="1289.31" cy="383.42" fill="rgba(182, 209, 239, 1)"></circle><circle r="5" cx="1245.04" cy="489.88" fill="rgba(182, 209, 239, 1)"></circle><circle r="5" cx="1290.9" cy="655.41" fill="rgba(182, 209, 239, 1)"></circle><circle r="5" cx="1456.95" cy="-110.02" fill="rgba(182, 209, 239, 1)"></circle><circle r="5" cx="1447.76" cy="39.4" fill="rgba(182, 209, 239, 1)"></circle><circle r="5" cx="1401.48" cy="241.18" fill="rgba(182, 209, 239, 1)"></circle><circle r="5" cx="1419.28" cy="359.32" fill="rgba(182, 209, 239, 1)"></circle><circle r="5" cx="1398.94" cy="515.94" fill="rgba(182, 209, 239, 1)"></circle><circle r="5" cx="1457.37" cy="705.96" fill="rgba(182, 209, 239, 1)"></circle><circle r="5" cx="1574.55" cy="83.98" fill="rgba(182, 209, 239, 1)"></circle><circle r="5" cx="1548.1" cy="208.42" fill="rgba(182, 209, 239, 1)"></circle><circle r="5" cx="1577.04" cy="350.87" fill="rgba(182, 209, 239, 1)"></circle><circle r="5" cx="1543.06" cy="511.29" fill="rgba(182, 209, 239, 1)"></circle><circle r="5" cx="1544.14" cy="660.04" fill="rgba(182, 209, 239, 1)"></circle><path d="M385.44 682.23L385.44 682.23" stroke="hsl(271, 15.9%, 49.7%)" stroke-width="1.5"></path><path d="M385.44 682.23L343.04 546.58" stroke="hsl(271, 15.9%, 49.7%)" stroke-width="1.5"></path><path d="M385.44 682.23L202 683.33" stroke="hsl(271, 15.9%, 49.7%)" stroke-width="1.5"></path><path d="M385.44 682.23L531.6 538.8" stroke="hsl(271, 15.9%, 49.7%)" stroke-width="1.5"></path><path d="M385.44 682.23L212.43 556.61" stroke="hsl(271, 15.9%, 49.7%)" stroke-width="1.5"></path><path d="M385.44 682.23L648.91 707.92" stroke="hsl(271, 15.9%, 49.7%)" stroke-width="1.5"></path><path d="M385.44 682.23L87.14 675.27" stroke="hsl(271, 15.9%, 49.7%)" stroke-width="1.5"></path><path d="M668.47 495.04L668.47 495.04" stroke="hsl(271, 15.9%, 49.7%)" stroke-width="1.5"></path><path d="M668.47 495.04L643.68 381.31" stroke="hsl(271, 15.9%, 49.7%)" stroke-width="1.5"></path><path d="M668.47 495.04L531.6 538.8" stroke="hsl(271, 15.9%, 49.7%)" stroke-width="1.5"></path><path d="M1413.5 383.99L1413.5 383.99" stroke="hsl(271, 15.9%, 49.7%)" stroke-width="1.5"></path><path d="M1413.5 383.99L1279.92 371.26" stroke="hsl(271, 15.9%, 49.7%)" stroke-width="1.5"></path><path d="M1413.5 383.99L1395.97 518.91" stroke="hsl(271, 15.9%, 49.7%)" stroke-width="1.5"></path><path d="M1413.5 383.99L1461.96 233.87" stroke="hsl(271, 15.9%, 49.7%)" stroke-width="1.5"></path><path d="M1413.5 383.99L1609.23 345.6" stroke="hsl(271, 15.9%, 49.7%)" stroke-width="1.5"></path><path d="M1413.5 383.99L1255.28 224.59" stroke="hsl(271, 15.9%, 49.7%)" stroke-width="1.5"></path><path d="M1609.23 345.6L1609.23 345.6" stroke="hsl(271, 15.9%, 49.7%)" stroke-width="1.5"></path><path d="M1609.23 345.6L1603.85 506.13" stroke="hsl(271, 15.9%, 49.7%)" stroke-width="1.5"></path><path d="M1609.23 345.6L1546.19 190.06" stroke="hsl(271, 15.9%, 49.7%)" stroke-width="1.5"></path><path d="M1544.22 655.57L1544.22 655.57" stroke="hsl(271, 15.9%, 49.7%)" stroke-width="1.5"></path><path d="M1544.22 655.57L1432.88 657.74" stroke="hsl(271, 15.9%, 49.7%)" stroke-width="1.5"></path><path d="M1544.22 655.57L1603.85 506.13" stroke="hsl(271, 15.9%, 49.7%)" stroke-width="1.5"></path><path d="M1544.22 655.57L1395.97 518.91" stroke="hsl(271, 15.9%, 49.7%)" stroke-width="1.5"></path><path d="M1544.22 655.57L1275.46 670.47" stroke="hsl(271, 15.9%, 49.7%)" stroke-width="1.5"></path><path d="M1544.22 655.57L1413.5 383.99" stroke="hsl(271, 15.9%, 49.7%)" stroke-width="1.5"></path><path d="M1544.22 655.57L1609.23 345.6" stroke="hsl(271, 15.9%, 49.7%)" stroke-width="1.5"></path><path d="M-105.37 561.72L-105.37 561.72" stroke="hsl(271, 15.9%, 49.7%)" stroke-width="1.5"></path><path d="M-105.37 561.72L-66.34 710.18" stroke="hsl(271, 15.9%, 49.7%)" stroke-width="1.5"></path><path d="M-105.37 561.72L75.63 502.46" stroke="hsl(271, 15.9%, 49.7%)" stroke-width="1.5"></path><path d="M-105.37 561.72L87.14 675.27" stroke="hsl(271, 15.9%, 49.7%)" stroke-width="1.5"></path><path d="M-66.34 710.18L-66.34 710.18" stroke="hsl(271, 15.9%, 49.7%)" stroke-width="1.5"></path><path d="M-66.34 710.18L87.14 675.27" stroke="hsl(271, 15.9%, 49.7%)" stroke-width="1.5"></path><path d="M75.63 502.46L75.63 502.46" stroke="hsl(271, 15.9%, 49.7%)" stroke-width="1.5"></path><path d="M75.63 502.46L212.43 556.61" stroke="hsl(271, 15.9%, 49.7%)" stroke-width="1.5"></path><path d="M75.63 502.46L87.14 675.27" stroke="hsl(271, 15.9%, 49.7%)" stroke-width="1.5"></path><path d="M75.63 502.46L202 683.33" stroke="hsl(271, 15.9%, 49.7%)" stroke-width="1.5"></path><path d="M75.63 502.46L-66.34 710.18" stroke="hsl(271, 15.9%, 49.7%)" stroke-width="1.5"></path><path d="M75.63 502.46L343.04 546.58" stroke="hsl(271, 15.9%, 49.7%)" stroke-width="1.5"></path><path d="M87.14 675.27L87.14 675.27" stroke="hsl(271, 15.9%, 49.7%)" stroke-width="1.5"></path><path d="M87.14 675.27L202 683.33" stroke="hsl(271, 15.9%, 49.7%)" stroke-width="1.5"></path><path d="M87.14 675.27L212.43 556.61" stroke="hsl(271, 15.9%, 49.7%)" stroke-width="1.5"></path><path d="M212.43 556.61L212.43 556.61" stroke="hsl(271, 15.9%, 49.7%)" stroke-width="1.5"></path><path d="M212.43 556.61L202 683.33" stroke="hsl(271, 15.9%, 49.7%)" stroke-width="1.5"></path><path d="M212.43 556.61L343.04 546.58" stroke="hsl(271, 15.9%, 49.7%)" stroke-width="1.5"></path><path d="M202 683.33L202 683.33" stroke="hsl(271, 15.9%, 49.7%)" stroke-width="1.5"></path><path d="M343.04 546.58L343.04 546.58" stroke="hsl(271, 15.9%, 49.7%)" stroke-width="1.5"></path><path d="M343.04 546.58L531.6 538.8" stroke="hsl(271, 15.9%, 49.7%)" stroke-width="1.5"></path><path d="M531.6 538.8L531.6 538.8" stroke="hsl(271, 15.9%, 49.7%)" stroke-width="1.5"></path><path d="M531.6 538.8L643.68 381.31" stroke="hsl(271, 15.9%, 49.7%)" stroke-width="1.5"></path><path d="M531.6 538.8L648.91 707.92" stroke="hsl(271, 15.9%, 49.7%)" stroke-width="1.5"></path><path d="M531.6 538.8L212.43 556.61" stroke="hsl(271, 15.9%, 49.7%)" stroke-width="1.5"></path><path d="M643.68 381.31L643.68 381.31" stroke="hsl(271, 15.9%, 49.7%)" stroke-width="1.5"></path><path d="M643.68 381.31L854.94 501.96" stroke="hsl(271, 15.9%, 49.7%)" stroke-width="1.5"></path><path d="M648.91 707.92L648.91 707.92" stroke="hsl(271, 15.9%, 49.7%)" stroke-width="1.5"></path><path d="M648.91 707.92L668.47 495.04" stroke="hsl(271, 15.9%, 49.7%)" stroke-width="1.5"></path><path d="M648.91 707.92L859.31 639.89" stroke="hsl(271, 15.9%, 49.7%)" stroke-width="1.5"></path><path d="M648.91 707.92L938.46 684.6" stroke="hsl(271, 15.9%, 49.7%)" stroke-width="1.5"></path><path d="M854.94 501.96L854.94 501.96" stroke="hsl(271, 15.9%, 49.7%)" stroke-width="1.5"></path><path d="M854.94 501.96L971.64 489.06" stroke="hsl(271, 15.9%, 49.7%)" stroke-width="1.5"></path><path d="M854.94 501.96L859.31 639.89" stroke="hsl(271, 15.9%, 49.7%)" stroke-width="1.5"></path><path d="M854.94 501.96L668.47 495.04" stroke="hsl(271, 15.9%, 49.7%)" stroke-width="1.5"></path><path d="M859.31 639.89L859.31 639.89" stroke="hsl(271, 15.9%, 49.7%)" stroke-width="1.5"></path><path d="M859.31 639.89L938.46 684.6" stroke="hsl(271, 15.9%, 49.7%)" stroke-width="1.5"></path><path d="M859.31 639.89L971.64 489.06" stroke="hsl(271, 15.9%, 49.7%)" stroke-width="1.5"></path><path d="M859.31 639.89L668.47 495.04" stroke="hsl(271, 15.9%, 49.7%)" stroke-width="1.5"></path><path d="M859.31 639.89L1143.61 641.39" stroke="hsl(271, 15.9%, 49.7%)" stroke-width="1.5"></path><path d="M1003.17 221.19L1003.17 221.19" stroke="hsl(271, 15.9%, 49.7%)" stroke-width="1.5"></path><path d="M1003.17 221.19L1119.53 211.67" stroke="hsl(271, 15.9%, 49.7%)" stroke-width="1.5"></path><path d="M1003.17 221.19L958.56 345.57" stroke="hsl(271, 15.9%, 49.7%)" stroke-width="1.5"></path><path d="M1003.17 221.19L1255.28 224.59" stroke="hsl(271, 15.9%, 49.7%)" stroke-width="1.5"></path><path d="M1003.17 221.19L971.64 489.06" stroke="hsl(271, 15.9%, 49.7%)" stroke-width="1.5"></path><path d="M1003.17 221.19L1253.15 52.64" stroke="hsl(271, 15.9%, 49.7%)" stroke-width="1.5"></path><path d="M958.56 345.57L958.56 345.57" stroke="hsl(271, 15.9%, 49.7%)" stroke-width="1.5"></path><path d="M958.56 345.57L971.64 489.06" stroke="hsl(271, 15.9%, 49.7%)" stroke-width="1.5"></path><path d="M958.56 345.57L854.94 501.96" stroke="hsl(271, 15.9%, 49.7%)" stroke-width="1.5"></path><path d="M958.56 345.57L1119.53 211.67" stroke="hsl(271, 15.9%, 49.7%)" stroke-width="1.5"></path><path d="M958.56 345.57L1152.6 522.11" stroke="hsl(271, 15.9%, 49.7%)" stroke-width="1.5"></path><path d="M958.56 345.57L859.31 639.89" stroke="hsl(271, 15.9%, 49.7%)" stroke-width="1.5"></path><path d="M971.64 489.06L971.64 489.06" stroke="hsl(271, 15.9%, 49.7%)" stroke-width="1.5"></path><path d="M971.64 489.06L1152.6 522.11" stroke="hsl(271, 15.9%, 49.7%)" stroke-width="1.5"></path><path d="M971.64 489.06L938.46 684.6" stroke="hsl(271, 15.9%, 49.7%)" stroke-width="1.5"></path><path d="M971.64 489.06L1143.61 641.39" stroke="hsl(271, 15.9%, 49.7%)" stroke-width="1.5"></path><path d="M938.46 684.6L938.46 684.6" stroke="hsl(271, 15.9%, 49.7%)" stroke-width="1.5"></path><path d="M938.46 684.6L854.94 501.96" stroke="hsl(271, 15.9%, 49.7%)" stroke-width="1.5"></path><path d="M938.46 684.6L1143.61 641.39" stroke="hsl(271, 15.9%, 49.7%)" stroke-width="1.5"></path><path d="M938.46 684.6L1152.6 522.11" stroke="hsl(271, 15.9%, 49.7%)" stroke-width="1.5"></path><path d="M1119.53 211.67L1119.53 211.67" stroke="hsl(271, 15.9%, 49.7%)" stroke-width="1.5"></path><path d="M1119.53 211.67L1255.28 224.59" stroke="hsl(271, 15.9%, 49.7%)" stroke-width="1.5"></path><path d="M1119.53 211.67L1253.15 52.64" stroke="hsl(271, 15.9%, 49.7%)" stroke-width="1.5"></path><path d="M1119.53 211.67L1279.92 371.26" stroke="hsl(271, 15.9%, 49.7%)" stroke-width="1.5"></path><path d="M1152.6 522.11L1152.6 522.11" stroke="hsl(271, 15.9%, 49.7%)" stroke-width="1.5"></path><path d="M1152.6 522.11L1238.01 525.99" stroke="hsl(271, 15.9%, 49.7%)" stroke-width="1.5"></path><path d="M1152.6 522.11L1143.61 641.39" stroke="hsl(271, 15.9%, 49.7%)" stroke-width="1.5"></path><path d="M1152.6 522.11L1275.46 670.47" stroke="hsl(271, 15.9%, 49.7%)" stroke-width="1.5"></path><path d="M1152.6 522.11L1279.92 371.26" stroke="hsl(271, 15.9%, 49.7%)" stroke-width="1.5"></path><path d="M1143.61 641.39L1143.61 641.39" stroke="hsl(271, 15.9%, 49.7%)" stroke-width="1.5"></path><path d="M1143.61 641.39L1275.46 670.47" stroke="hsl(271, 15.9%, 49.7%)" stroke-width="1.5"></path><path d="M1143.61 641.39L1238.01 525.99" stroke="hsl(271, 15.9%, 49.7%)" stroke-width="1.5"></path><path d="M1302.09 -48.56L1302.09 -48.56" stroke="hsl(271, 15.9%, 49.7%)" stroke-width="1.5"></path><path d="M1302.09 -48.56L1253.15 52.64" stroke="hsl(271, 15.9%, 49.7%)" stroke-width="1.5"></path><path d="M1302.09 -48.56L1426.21 63.48" stroke="hsl(271, 15.9%, 49.7%)" stroke-width="1.5"></path><path d="M1302.09 -48.56L1545.23 -87.93" stroke="hsl(271, 15.9%, 49.7%)" stroke-width="1.5"></path><path d="M1302.09 -48.56L1255.28 224.59" stroke="hsl(271, 15.9%, 49.7%)" stroke-width="1.5"></path><path d="M1302.09 -48.56L1119.53 211.67" stroke="hsl(271, 15.9%, 49.7%)" stroke-width="1.5"></path><path d="M1302.09 -48.56L1604.36 58.39" stroke="hsl(271, 15.9%, 49.7%)" stroke-width="1.5"></path><path d="M1253.15 52.64L1253.15 52.64" stroke="hsl(271, 15.9%, 49.7%)" stroke-width="1.5"></path><path d="M1253.15 52.64L1255.28 224.59" stroke="hsl(271, 15.9%, 49.7%)" stroke-width="1.5"></path><path d="M1253.15 52.64L1426.21 63.48" stroke="hsl(271, 15.9%, 49.7%)" stroke-width="1.5"></path><path d="M1253.15 52.64L1461.96 233.87" stroke="hsl(271, 15.9%, 49.7%)" stroke-width="1.5"></path><path d="M1255.28 224.59L1255.28 224.59" stroke="hsl(271, 15.9%, 49.7%)" stroke-width="1.5"></path><path d="M1255.28 224.59L1279.92 371.26" stroke="hsl(271, 15.9%, 49.7%)" stroke-width="1.5"></path><path d="M1279.92 371.26L1279.92 371.26" stroke="hsl(271, 15.9%, 49.7%)" stroke-width="1.5"></path><path d="M1238.01 525.99L1238.01 525.99" stroke="hsl(271, 15.9%, 49.7%)" stroke-width="1.5"></path><path d="M1238.01 525.99L1275.46 670.47" stroke="hsl(271, 15.9%, 49.7%)" stroke-width="1.5"></path><path d="M1275.46 670.47L1275.46 670.47" stroke="hsl(271, 15.9%, 49.7%)" stroke-width="1.5"></path><path d="M1275.46 670.47L1432.88 657.74" stroke="hsl(271, 15.9%, 49.7%)" stroke-width="1.5"></path><path d="M1426.21 63.48L1426.21 63.48" stroke="hsl(271, 15.9%, 49.7%)" stroke-width="1.5"></path><path d="M1426.21 63.48L1461.96 233.87" stroke="hsl(271, 15.9%, 49.7%)" stroke-width="1.5"></path><path d="M1426.21 63.48L1546.19 190.06" stroke="hsl(271, 15.9%, 49.7%)" stroke-width="1.5"></path><path d="M1461.96 233.87L1461.96 233.87" stroke="hsl(271, 15.9%, 49.7%)" stroke-width="1.5"></path><path d="M1461.96 233.87L1546.19 190.06" stroke="hsl(271, 15.9%, 49.7%)" stroke-width="1.5"></path><path d="M1461.96 233.87L1609.23 345.6" stroke="hsl(271, 15.9%, 49.7%)" stroke-width="1.5"></path><path d="M1461.96 233.87L1255.28 224.59" stroke="hsl(271, 15.9%, 49.7%)" stroke-width="1.5"></path><path d="M1395.97 518.91L1395.97 518.91" stroke="hsl(271, 15.9%, 49.7%)" stroke-width="1.5"></path><path d="M1395.97 518.91L1432.88 657.74" stroke="hsl(271, 15.9%, 49.7%)" stroke-width="1.5"></path><path d="M1395.97 518.91L1238.01 525.99" stroke="hsl(271, 15.9%, 49.7%)" stroke-width="1.5"></path><path d="M1395.97 518.91L1279.92 371.26" stroke="hsl(271, 15.9%, 49.7%)" stroke-width="1.5"></path><path d="M1432.88 657.74L1432.88 657.74" stroke="hsl(271, 15.9%, 49.7%)" stroke-width="1.5"></path><path d="M1545.23 -87.93L1545.23 -87.93" stroke="hsl(271, 15.9%, 49.7%)" stroke-width="1.5"></path><path d="M1545.23 -87.93L1604.36 58.39" stroke="hsl(271, 15.9%, 49.7%)" stroke-width="1.5"></path><path d="M1545.23 -87.93L1426.21 63.48" stroke="hsl(271, 15.9%, 49.7%)" stroke-width="1.5"></path><path d="M1604.36 58.39L1604.36 58.39" stroke="hsl(271, 15.9%, 49.7%)" stroke-width="1.5"></path><path d="M1604.36 58.39L1546.19 190.06" stroke="hsl(271, 15.9%, 49.7%)" stroke-width="1.5"></path><path d="M1604.36 58.39L1426.21 63.48" stroke="hsl(271, 15.9%, 49.7%)" stroke-width="1.5"></path><path d="M1604.36 58.39L1461.96 233.87" stroke="hsl(271, 15.9%, 49.7%)" stroke-width="1.5"></path><path d="M1604.36 58.39L1609.23 345.6" stroke="hsl(271, 15.9%, 49.7%)" stroke-width="1.5"></path><path d="M1546.19 190.06L1546.19 190.06" stroke="hsl(271, 15.9%, 49.7%)" stroke-width="1.5"></path><path d="M1546.19 190.06L1413.5 383.99" stroke="hsl(271, 15.9%, 49.7%)" stroke-width="1.5"></path><path d="M1546.19 190.06L1545.23 -87.93" stroke="hsl(271, 15.9%, 49.7%)" stroke-width="1.5"></path><path d="M1603.85 506.13L1603.85 506.13" stroke="hsl(271, 15.9%, 49.7%)" stroke-width="1.5"></path><path d="M1603.85 506.13L1395.97 518.91" stroke="hsl(271, 15.9%, 49.7%)" stroke-width="1.5"></path><circle r="25" cx="385.44" cy="682.23" fill="url(&quot;#SvgjsRadialGradient1017&quot;)"></circle><circle r="25" cx="668.47" cy="495.04" fill="url(&quot;#SvgjsRadialGradient1017&quot;)"></circle><circle r="25" cx="1413.5" cy="383.99" fill="url(&quot;#SvgjsRadialGradient1017&quot;)"></circle><circle r="25" cx="1609.23" cy="345.6" fill="url(&quot;#SvgjsRadialGradient1017&quot;)"></circle><circle r="25" cx="1544.22" cy="655.57" fill="url(&quot;#SvgjsRadialGradient1017&quot;)"></circle><circle r="5" cx="-105.37" cy="561.72" fill="#b1a9b8"></circle><circle r="5" cx="-66.34" cy="710.18" fill="#b1a9b8"></circle><circle r="5" cx="75.63" cy="502.46" fill="#b1a9b8"></circle><circle r="5" cx="87.14" cy="675.27" fill="#b1a9b8"></circle><circle r="5" cx="212.43" cy="556.61" fill="#b1a9b8"></circle><circle r="5" cx="202" cy="683.33" fill="#b1a9b8"></circle><circle r="5" cx="343.04" cy="546.58" fill="#b1a9b8"></circle><circle r="5" cx="531.6" cy="538.8" fill="#b1a9b8"></circle><circle r="5" cx="643.68" cy="381.31" fill="#b1a9b8"></circle><circle r="5" cx="648.91" cy="707.92" fill="#b1a9b8"></circle><circle r="5" cx="854.94" cy="501.96" fill="#b1a9b8"></circle><circle r="5" cx="859.31" cy="639.89" fill="#b1a9b8"></circle><circle r="5" cx="1003.17" cy="221.19" fill="#b1a9b8"></circle><circle r="5" cx="958.56" cy="345.57" fill="#b1a9b8"></circle><circle r="5" cx="971.64" cy="489.06" fill="#b1a9b8"></circle><circle r="5" cx="938.46" cy="684.6" fill="#b1a9b8"></circle><circle r="5" cx="1119.53" cy="211.67" fill="#b1a9b8"></circle><circle r="5" cx="1152.6" cy="522.11" fill="#b1a9b8"></circle><circle r="5" cx="1143.61" cy="641.39" fill="#b1a9b8"></circle><circle r="5" cx="1302.09" cy="-48.56" fill="#b1a9b8"></circle><circle r="5" cx="1253.15" cy="52.64" fill="#b1a9b8"></circle><circle r="5" cx="1255.28" cy="224.59" fill="#b1a9b8"></circle><circle r="5" cx="1279.92" cy="371.26" fill="#b1a9b8"></circle><circle r="5" cx="1238.01" cy="525.99" fill="#b1a9b8"></circle><circle r="5" cx="1275.46" cy="670.47" fill="#b1a9b8"></circle><circle r="5" cx="1426.21" cy="63.48" fill="#b1a9b8"></circle><circle r="5" cx="1461.96" cy="233.87" fill="#b1a9b8"></circle><circle r="5" cx="1395.97" cy="518.91" fill="#b1a9b8"></circle><circle r="5" cx="1432.88" cy="657.74" fill="#b1a9b8"></circle><circle r="5" cx="1545.23" cy="-87.93" fill="#b1a9b8"></circle><circle r="5" cx="1604.36" cy="58.39" fill="#b1a9b8"></circle><circle r="5" cx="1546.19" cy="190.06" fill="#b1a9b8"></circle><circle r="5" cx="1603.85" cy="506.13" fill="#b1a9b8"></circle></g><defs><mask id="SvgjsMask1016"><rect width="1440" height="560" fill="#ffffff"></rect></mask><radialGradient id="SvgjsRadialGradient1017"><stop stop-color="#ffffff" offset="0.1"></stop><stop stop-color="rgba(98, 82, 113, 1)" offset="0.2"></stop><stop stop-color="rgba(98, 82, 113, 0)" offset="1"></stop></radialGradient></defs></svg>