<svg xmlns="http://www.w3.org/2000/svg" version="1.1" xmlns:xlink="http://www.w3.org/1999/xlink" xmlns:svgjs="http://svgjs.dev/svgjs" width="1440" height="560" preserveAspectRatio="none" viewBox="0 0 1440 560"><g mask="url(&quot;#SvgjsMask1001&quot;)" fill="none"><path d="M361.85 562.79C509.11 561.26 627.65 408.64 928.69 402.55 1229.74 396.46 1341.11 161.4 1495.54 156.15" stroke="rgba(51,121,194,0.58)" stroke-width="2"></path><path d="M313.55 656.22C468.56 656.08 609.17 584.63 929.06 581.27 1248.94 577.91 1376.2 312.99 1544.56 306.87" stroke="rgba(51,121,194,0.58)" stroke-width="2"></path><path d="M778.63 583.66C875.9 550.99 837.7 267.6 1038.73 266.15 1239.76 264.7 1425.29 388.51 1558.93 389.35" stroke="rgba(51,121,194,0.58)" stroke-width="2"></path><path d="M677.53 573C782.53 545.36 748.58 257.07 974.93 256.51 1201.28 255.95 1415.59 417.46 1569.72 418.91" stroke="rgba(51,121,194,0.58)" stroke-width="2"></path><path d="M714.06 663.89C845.88 629.95 892.92 271.96 1089.29 269.33 1285.65 266.7 1362.35 428.3 1464.51 431.73" stroke="rgba(51,121,194,0.58)" stroke-width="2"></path></g><defs><mask id="SvgjsMask1001"><rect width="1440" height="560" fill="#ffffff"></rect></mask></defs></svg>