<?xml version="1.0" encoding="UTF-8"?>
<svg version="1.1" xmlns="http://www.w3.org/2000/svg" width="500" height="500">
<path d="M0 0 C165 0 330 0 500 0 C500 165 500 330 500 500 C335 500 170 500 0 500 C0 335 0 170 0 0 Z " fill="#004AAC" transform="translate(0,0)"/>
<path d="M0 0 C47.52 0 95.04 0 144 0 C144 2.64 144 5.28 144 8 C142.35360035 9.35827971 140.68704193 10.69254251 139 12 C138.45773448 16.41559065 138.51163035 18.26744552 141 22 C141.99 22.33 142.98 22.66 144 23 C144 24.98 144 26.96 144 29 C143.0409375 29.433125 143.0409375 29.433125 142.0625 29.875 C139.84793921 30.82823451 139.84793921 30.82823451 139 33 C138.50511808 37.72949066 138.50511808 37.72949066 140.375 41.875 C142.01178511 43.06481812 142.01178511 43.06481812 144 44 C144.3125 46.25 144.3125 46.25 144 49 C143.175 49.598125 142.35 50.19625 141.5 50.8125 C138.89882353 52.67981082 138.89882353 52.67981082 138.4921875 54.88671875 C138.31185333 57.9940332 138.31185333 57.9940332 139 61 C141.97727205 64.28005237 144.32345498 65.27225418 148.6254425 65.51898193 C150.51612168 65.54824922 152.40721528 65.55567217 154.2980957 65.54589844 C155.33270432 65.55623611 156.36731293 65.56657379 157.43327332 65.57722473 C160.84760089 65.60668504 164.26133648 65.60815264 167.67578125 65.609375 C170.0451928 65.6243544 172.4145939 65.64108103 174.78398132 65.65948486 C181.01629106 65.70319717 187.24845993 65.72316626 193.480896 65.73822021 C199.84216657 65.75777714 206.20328471 65.79974881 212.56445312 65.83984375 C225.04292178 65.91518808 237.52135638 65.96545414 250 66 C250 67.65 250 69.3 250 71 C195.55 71.495 195.55 71.495 140 72 C138.47508002 75.04983996 138.76437452 77.6423369 139 81 C140.54262813 83.10358381 141.68108317 83.84054159 144 85 C144 87.64 144 90.28 144 93 C96.48 93 48.96 93 0 93 C0 62.31 0 31.62 0 0 Z " fill="#024BAD" transform="translate(89,162)"/>
<path d="M0 0 C70.62 0 141.24 0 214 0 C214 3.63 214 7.26 214 11 C212.35 11.33 210.7 11.66 209 12 C208.64537089 16.03133417 208.64537089 16.03133417 209 20 C209.825 20.474375 210.65 20.94875 211.5 21.4375 C212.325 21.953125 213.15 22.46875 214 23 C214.46409851 26.03575023 214.28762219 28.95120475 214 32 C212.35 32.66 210.7 33.32 209 34 C209 36.31 209 38.62 209 41 C210.65 41.66 212.3 42.32 214 43 C214.28762219 46.04879525 214.46409851 48.96424977 214 52 C212.35178756 53.03013277 210.68496298 54.03114628 209 55 C208.52431664 57.78694486 208.76642515 60.15038679 209 63 C210.65 63.33 212.3 63.66 214 64 C214 64.99 214 65.98 214 67 C207.78331402 64.81575898 207.78331402 64.81575898 206 62 C205.22580645 55.03225806 205.22580645 55.03225806 207.875 51.5 C210 50 210 50 212 50 C212 48.35 212 46.7 212 45 C210.7934375 44.566875 210.7934375 44.566875 209.5625 44.125 C207 43 207 43 206 41 C205.72817181 37.33031947 205.54724144 34.84083732 207.3125 31.5625 C209 30 209 30 212 30 C212 28.02 212 26.04 212 24 C211.38125 23.896875 210.7625 23.79375 210.125 23.6875 C208 23 208 23 206 20 C205.55648414 15.93443799 205.33895476 13.85935881 207.875 10.5625 C210 9 210 9 212 9 C212 6.36 212 3.72 212 1 C164.48 1 116.96 1 68 1 C68 31.69 68 62.38 68 94 C115.52 94 163.04 94 212 94 C212 91.36 212 88.72 212 86 C211.195625 85.71125 210.39125 85.4225 209.5625 85.125 C207 84 207 84 206 82 C205.64705882 75.52941176 205.64705882 75.52941176 208 72 C211.125 71.8125 211.125 71.8125 214 72 C211 74 211 74 209 75 C209 77.31 209 79.62 209 82 C210.65 82.66 212.3 83.32 214 84 C214 87.96 214 91.92 214 96 C143.38 96 72.76 96 0 96 C0 92.04 0 88.08 0 84 C2.475 83.01 2.475 83.01 5 82 C5 79.36 5 76.72 5 74 C3.35 73.67 1.7 73.34 0 73 C-0.28766837 69.95071529 -0.46252769 67.03635826 0 64 C2.5 62.3125 2.5 62.3125 5 61 C5.83333333 58 5.83333333 58 5 55 C4.175 54.566875 3.35 54.13375 2.5 53.6875 C1.675 53.130625 0.85 52.57375 0 52 C-0.46252769 48.96364174 -0.28766837 46.04928471 0 43 C1.65 42.34 3.3 41.68 5 41 C5 38.69 5 36.38 5 34 C3.35 33.34 1.7 32.68 0 32 C-0.28766837 28.95071529 -0.46252769 26.03635826 0 23 C2.5 21.3125 2.5 21.3125 5 20 C5.83333333 17 5.83333333 17 5 14 C4.175 13.608125 3.35 13.21625 2.5 12.8125 C1.675 12.214375 0.85 11.61625 0 11 C0 7.37 0 3.74 0 0 Z " fill="#00439E" transform="translate(21,161)"/>
<path d="M0 0 C70.62 0 141.24 0 214 0 C214 3.63 214 7.26 214 11 C212.35 11.33 210.7 11.66 209 12 C208.64537089 16.03133417 208.64537089 16.03133417 209 20 C209.825 20.474375 210.65 20.94875 211.5 21.4375 C212.325 21.953125 213.15 22.46875 214 23 C214.46409851 26.03575023 214.28762219 28.95120475 214 32 C212.35 32.66 210.7 33.32 209 34 C209 36.31 209 38.62 209 41 C210.65 41.66 212.3 42.32 214 43 C214.28762219 46.04879525 214.46409851 48.96424977 214 52 C212.35178756 53.03013277 210.68496298 54.03114628 209 55 C208.52431664 57.78694486 208.76642515 60.15038679 209 63 C210.65 63.33 212.3 63.66 214 64 C214 64.99 214 65.98 214 67 C207.78331402 64.81575898 207.78331402 64.81575898 206 62 C205.22580645 55.03225806 205.22580645 55.03225806 207.875 51.5 C210 50 210 50 212 50 C212 48.35 212 46.7 212 45 C210.7934375 44.566875 210.7934375 44.566875 209.5625 44.125 C207 43 207 43 206 41 C205.72817181 37.33031947 205.54724144 34.84083732 207.3125 31.5625 C209 30 209 30 212 30 C212 28.02 212 26.04 212 24 C211.38125 23.896875 210.7625 23.79375 210.125 23.6875 C208 23 208 23 206 20 C205.55648414 15.93443799 205.33895476 13.85935881 207.875 10.5625 C210 9 210 9 212 9 C212 6.36 212 3.72 212 1 C164.48 1 116.96 1 68 1 C68 31.69 68 62.38 68 94 C115.52 94 163.04 94 212 94 C212 91.36 212 88.72 212 86 C211.195625 85.71125 210.39125 85.4225 209.5625 85.125 C207 84 207 84 206 82 C205.64705882 75.52941176 205.64705882 75.52941176 208 72 C211.125 71.8125 211.125 71.8125 214 72 C211 74 211 74 209 75 C209 77.31 209 79.62 209 82 C210.65 82.66 212.3 83.32 214 84 C214 87.96 214 91.92 214 96 C143.38 96 72.76 96 0 96 C0 92.04 0 88.08 0 84 C2.475 83.01 2.475 83.01 5 82 C5 79.36 5 76.72 5 74 C3.35 73.67 1.7 73.34 0 73 C-0.28766837 69.95071529 -0.46252769 67.03635826 0 64 C2.5 62.3125 2.5 62.3125 5 61 C5.83333333 58 5.83333333 58 5 55 C4.175 54.566875 3.35 54.13375 2.5 53.6875 C1.675 53.130625 0.85 52.57375 0 52 C-0.46252769 48.96364174 -0.28766837 46.04928471 0 43 C1.65 42.34 3.3 41.68 5 41 C5 38.69 5 36.38 5 34 C3.35 33.34 1.7 32.68 0 32 C-0.28766837 28.95071529 -0.46252769 26.03635826 0 23 C2.5 21.3125 2.5 21.3125 5 20 C5.83333333 17 5.83333333 17 5 14 C4.175 13.608125 3.35 13.21625 2.5 12.8125 C1.675 12.214375 0.85 11.61625 0 11 C0 7.37 0 3.74 0 0 Z M2 1 C2 3.64 2 6.28 2 9 C3.64639965 10.35827971 5.31295807 11.69254251 7 13 C7.54226552 17.41559065 7.48836965 19.26744552 5 23 C4.01 23.33 3.02 23.66 2 24 C1.58013054 26.28836222 1.58013054 26.28836222 2 29 C2.825 29.78375 3.65 30.5675 4.5 31.375 C7 34 7 34 7.5 37.625 C7 41 7 41 5.625 42.875 C4 44 4 44 2 45 C2 46.98 2 48.96 2 51 C2.639375 51.28875 3.27875 51.5775 3.9375 51.875 C6 53 6 53 7 55 C7.25860135 59.05142119 7.30441554 60.54337669 5 64 C3.515 64.495 3.515 64.495 2 65 C2 66.98 2 68.96 2 71 C2.639375 71.28875 3.27875 71.5775 3.9375 71.875 C6 73 6 73 7 75 C7.46315789 81.36842105 7.46315789 81.36842105 5.625 83.875 C4 85 4 85 2 86 C2 88.64 2 91.28 2 94 C23.12 94 44.24 94 66 94 C66 63.31 66 32.62 66 1 C44.88 1 23.76 1 2 1 Z " fill="#00050D" transform="translate(21,161)"/>
<path d="M0 0 C81.84 0 163.68 0 248 0 C248 1.65 248 3.3 248 5 C166.16 5 84.32 5 0 5 C0 3.35 0 1.7 0 0 Z " fill="#F0F3FA" transform="translate(91,228)"/>
<path d="M0 0 C2.97 0 5.94 0 9 0 C9.33 5.94 9.66 11.88 10 18 C10.97582031 16.95199219 11.95164063 15.90398437 12.95703125 14.82421875 C14.24215906 13.44528599 15.52731688 12.0663812 16.8125 10.6875 C17.45509766 9.99720703 18.09769531 9.30691406 18.75976562 8.59570312 C19.69272461 7.59506836 19.69272461 7.59506836 20.64453125 6.57421875 C21.21534424 5.96151123 21.78615723 5.34880371 22.37426758 4.7175293 C22.91075928 4.15074463 23.44725098 3.58395996 24 3 C24.50402344 2.43732422 25.00804687 1.87464844 25.52734375 1.29492188 C27.88370437 -0.77705039 30.14212885 -0.28573778 33.1875 -0.1875 C34.27417969 -0.16042969 35.36085937 -0.13335937 36.48046875 -0.10546875 C37.72763672 -0.05326172 37.72763672 -0.05326172 39 0 C34.60502098 6.32532275 29.54949524 11.67248457 24 17 C27.19835865 23.22757333 30.92825229 28.82670149 35.1328125 34.421875 C36.91096437 36.87706378 38.48155763 39.3780933 40 42 C35.65851125 43.09105476 32.3033343 43.34695849 28 42 C23.77940362 37.89802419 20.89424642 32.57305691 18.04638672 27.46875 C17.7010791 26.9840625 17.35577148 26.499375 17 26 C14.74901857 25.80751176 14.74901857 25.80751176 12.4375 27.8125 C8.65952042 31.6349264 9.09783656 36.92139332 9 42 C6.03 42 3.06 42 0 42 C0 28.14 0 14.28 0 0 Z " fill="#0D53B1" transform="translate(187,184)"/>
<path d="M0 0 C2.97 0 5.94 0 9 0 C9.33 3.96 9.66 7.92 10 12 C10.66 11.67 11.32 11.34 12 11 C16.70777 10.60768583 19.07079697 10.52663242 23.3125 12.6875 C27.00728376 15.86673254 28.73887441 18.41621656 29.5390625 23.26953125 C29.56742187 24.43871094 29.59578125 25.60789063 29.625 26.8125 C29.67914063 27.97394531 29.73328125 29.13539063 29.7890625 30.33203125 C28.65937295 35.5834099 26.43682747 38.92313989 22 42 C18.11429789 42.93114428 14.52852272 42.76626695 10.5625 42.5 C7.076875 42.335 3.59125 42.17 0 42 C0 28.14 0 14.28 0 0 Z " fill="#0C53B1" transform="translate(309,184)"/>
<path d="M0 0 C4.5067248 2.84727187 6.71015088 6.05154103 8.015625 11.2734375 C5.045625 12.2634375 2.075625 13.2534375 -0.984375 14.2734375 C-1.665 13.066875 -1.665 13.066875 -2.359375 11.8359375 C-3.73163165 9.18487178 -3.73163165 9.18487178 -5.984375 8.2734375 C-7.79281163 8.12627208 -9.60769066 8.0523488 -11.421875 8.0234375 C-12.38996094 7.99765625 -13.35804688 7.971875 -14.35546875 7.9453125 C-16.99809466 8.05580262 -16.99809466 8.05580262 -18.76953125 9.6015625 C-21.71797055 13.65922174 -21.46607479 18.48093285 -20.984375 23.2734375 C-19.46235306 27.08183033 -19.46235306 27.08183033 -16.984375 30.2734375 C-9.77189959 31.06289484 -9.77189959 31.06289484 -3.359375 28.3984375 C-1.97057106 26.33785589 -1.97057106 26.33785589 -0.984375 24.2734375 C1.985625 25.2634375 4.955625 26.2534375 8.015625 27.2734375 C6.74894951 33.18458978 3.8502294 35.98917038 -0.984375 39.2734375 C-5.78340924 41.56862779 -10.74879872 42.11732973 -15.984375 41.2734375 C-22.39312375 38.78799327 -27.00389824 35.34281129 -30.0546875 29.07421875 C-32.09913009 22.91512068 -32.20602791 14.87840433 -30.109375 8.69140625 C-23.50630442 -2.66848163 -11.48523691 -5.66230211 0 0 Z " fill="#DDE5F4" transform="translate(174.984375,185.7265625)"/>
<path d="M0 0 C3.3 0 6.6 0 10 0 C10.33 3.96 10.66 7.92 11 12 C11.66 11.67 12.32 11.34 13 11 C17.98109259 10.62406848 21.05673864 10.8234839 25 14 C27.59756639 17.63190208 28.36745842 20.0749809 28.29296875 24.51953125 C28.28330078 25.54111328 28.27363281 26.56269531 28.26367188 27.61523438 C28.23853516 28.67033203 28.21339844 29.72542969 28.1875 30.8125 C28.16719727 32.42415039 28.16719727 32.42415039 28.14648438 34.06835938 C28.11122577 36.71275455 28.06194366 39.35611748 28 42 C25.03 42 22.06 42 19 42 C18.67 34.74 18.34 27.48 18 20 C15.69 20.66 13.38 21.32 11 22 C10.67 28.6 10.34 35.2 10 42 C6.7 42 3.4 42 0 42 C0 28.14 0 14.28 0 0 Z " fill="#F2F5FB" transform="translate(242,184)"/>
<path d="M0 0 C3.3 0 6.6 0 10 0 C10 10.23 10 20.46 10 31 C6.473125 31.103125 2.94625 31.20625 -0.6875 31.3125 C-1.79053467 31.35802002 -2.89356934 31.40354004 -4.0300293 31.45043945 C-11.25451488 31.55286287 -11.25451488 31.55286287 -15.14453125 28.66796875 C-17.73382443 24.94483771 -18.12321877 22.31684783 -18.09765625 17.89453125 C-18.09443359 16.91162109 -18.09121094 15.92871094 -18.08789062 14.91601562 C-18.07951172 13.89185547 -18.07113281 12.86769531 -18.0625 11.8125 C-18.05798828 10.77673828 -18.05347656 9.74097656 -18.04882812 8.67382812 C-18.0370401 6.11582734 -18.02058515 3.55794267 -18 1 C-15.03 1 -12.06 1 -9 1 C-8.93941406 2.43214844 -8.87882812 3.86429688 -8.81640625 5.33984375 C-8.73201896 7.20574041 -8.64737007 9.07162524 -8.5625 10.9375 C-8.52318359 11.88302734 -8.48386719 12.82855469 -8.44335938 13.80273438 C-8.38051758 15.15141602 -8.38051758 15.15141602 -8.31640625 16.52734375 C-8.27974854 17.35999756 -8.24309082 18.19265137 -8.20532227 19.05053711 C-8.20632897 21.00338858 -8.20632897 21.00338858 -7 22 C-5.33382885 22.04063832 -3.66611905 22.042721 -2 22 C-1.09166031 19.27498092 -0.81640015 17.37766029 -0.68359375 14.55078125 C-0.64169922 13.70322266 -0.59980469 12.85566406 -0.55664062 11.98242188 C-0.51732422 11.10134766 -0.47800781 10.22027344 -0.4375 9.3125 C-0.39431641 8.41982422 -0.35113281 7.52714844 -0.30664062 6.60742188 C-0.2006478 4.40512656 -0.09982779 2.20258338 0 0 Z " fill="#E7ECF7" transform="translate(293,195)"/>
<path d="M0 0 C11.55 0 23.1 0 35 0 C35 2.97 35 5.94 35 9 C30.71 9 26.42 9 22 9 C22 19.89 22 30.78 22 42 C19.03 42 16.06 42 13 42 C13 30.78 13 19.56 13 8 C8.71 8 4.42 8 0 8 C0 5.36 0 2.72 0 0 Z " fill="#D8E2F3" transform="translate(91,184)"/>
<path d="M0 0 C2.97 0 5.94 0 9 0 C9.33 5.94 9.66 11.88 10 18 C10.97582031 16.95199219 11.95164063 15.90398437 12.95703125 14.82421875 C14.24215906 13.44528599 15.52731688 12.0663812 16.8125 10.6875 C17.45509766 9.99720703 18.09769531 9.30691406 18.75976562 8.59570312 C19.69272461 7.59506836 19.69272461 7.59506836 20.64453125 6.57421875 C21.21534424 5.96151123 21.78615723 5.34880371 22.37426758 4.7175293 C22.91075928 4.15074463 23.44725098 3.58395996 24 3 C24.50402344 2.43732422 25.00804687 1.87464844 25.52734375 1.29492188 C27.88370437 -0.77705039 30.14212885 -0.28573778 33.1875 -0.1875 C34.27417969 -0.16042969 35.36085937 -0.13335937 36.48046875 -0.10546875 C37.72763672 -0.05326172 37.72763672 -0.05326172 39 0 C34.60502098 6.32532275 29.54949524 11.67248457 24 17 C27.19835865 23.22757333 30.92825229 28.82670149 35.1328125 34.421875 C36.91096437 36.87706378 38.48155763 39.3780933 40 42 C35.65851125 43.09105476 32.3033343 43.34695849 28 42 C23.77940362 37.89802419 20.89424642 32.57305691 18.04638672 27.46875 C17.7010791 26.9840625 17.35577148 26.499375 17 26 C14.74901857 25.80751176 14.74901857 25.80751176 12.4375 27.8125 C8.65952042 31.6349264 9.09783656 36.92139332 9 42 C6.03 42 3.06 42 0 42 C0 28.14 0 14.28 0 0 Z M2 2 C2 14.54 2 27.08 2 40 C3.65 40 5.3 40 7 40 C6.9690625 39.05640625 6.9690625 39.05640625 6.9375 38.09375 C7.07477861 32.39668784 7.93561333 29.43638053 12.0625 25.375 C13.35426948 24.22625596 14.66032162 23.09249398 16 22 C18.53633613 24.26724404 20.41524778 26.53140431 22.11328125 29.453125 C22.47486328 30.071875 22.83644531 30.690625 23.20898438 31.328125 C23.948557 32.61615946 24.67245347 33.91331463 25.38085938 35.21875 C26.58175792 37.35633316 26.58175792 37.35633316 29 40 C32.698148 40.5644273 32.698148 40.5644273 36 40 C31.30987623 32.42251879 26.3223643 25.14717492 21 18 C24.93803747 13.27435503 29.04515378 8.88503809 33.4609375 4.6015625 C35.11548297 3.25002686 35.11548297 3.25002686 35 2 C32.16388848 1.45691482 30.74339979 1.27010464 28 2 C24.59817778 4.63656169 21.82985674 7.76945558 19 11 C18.01580078 12.10794922 18.01580078 12.10794922 17.01171875 13.23828125 C15.86561167 14.54145654 14.72871304 15.85284908 13.60546875 17.17578125 C11.82531154 19.19849029 9.90529677 21.09470323 8 23 C7.67 16.07 7.34 9.14 7 2 C5.35 2 3.7 2 2 2 Z " fill="#E1E8F6" transform="translate(187,184)"/>
<path d="M0 0 C3.3 0 6.6 0 10 0 C10 13.86 10 27.72 10 42 C6.7 42 3.4 42 0 42 C0 28.14 0 14.28 0 0 Z " fill="#CEDBEF" transform="translate(129,184)"/>
<path d="M0 0 C2.28879071 1.95384573 4.0183501 3.61391683 5.5625 6.1875 C5.5625 6.8475 5.5625 7.5075 5.5625 8.1875 C3.9125 8.5175 2.2625 8.8475 0.5625 9.1875 C-0.05625 8.383125 -0.675 7.57875 -1.3125 6.75 C-3.53995113 4.063956 -4.2526004 3.31542721 -7.64453125 2.94921875 C-13.29915733 2.77795866 -13.29915733 2.77795866 -18.4375 4.9375 C-22.3696347 9.36115153 -22.82399781 12.86434293 -22.6875 18.6484375 C-22.21709252 23.42601345 -20.93986404 26.85683471 -17.25 30.125 C-13.57454667 31.51350459 -10.28108278 31.88565078 -6.4375 31.1875 C-2.18083301 28.94587575 -2.18083301 28.94587575 0.5625 25.1875 C2.2125 25.5175 3.8625 25.8475 5.5625 26.1875 C4.21094718 30.61076378 2.36359562 32.59162982 -1.4375 35.1875 C-7.06886251 37.06462084 -14.08146372 37.4236304 -19.70703125 35.3515625 C-24.22594605 32.41771368 -27.00038063 28.34922461 -28.4375 23.1875 C-29.40309206 15.79126393 -28.96893915 9.29830067 -24.4375 3.1875 C-17.53328241 -3.71671759 -8.48530094 -4.47406777 0 0 Z " fill="#0C52B0" transform="translate(174.4375,187.8125)"/>
<path d="M0 0 C11.88 0 23.76 0 36 0 C36 3.3 36 6.6 36 10 C24.12 10 12.24 10 0 10 C0 6.7 0 3.4 0 0 Z " fill="#000F24" transform="translate(39,205)"/>
<path d="M0 0 C1.32 0 2.64 0 4 0 C4.33 5.28 4.66 10.56 5 16 C6.98 14.35 8.96 12.7 11 11 C15.1437977 10.92855521 17.15423617 11.31003477 20.375 13.9375 C22.80771012 17.02517054 23.12212057 18.70495039 23.09765625 22.5703125 C23.09443359 23.46621094 23.09121094 24.36210937 23.08789062 25.28515625 C23.07951172 26.22230469 23.07113281 27.15945312 23.0625 28.125 C23.05798828 29.06988281 23.05347656 30.01476562 23.04882812 30.98828125 C23.03702357 33.32558387 23.02055759 35.66276061 23 38 C21.35 38 19.7 38 18 38 C17.98541748 37.44014404 17.97083496 36.88028809 17.95581055 36.3034668 C17.88128648 33.76411863 17.78464419 31.22607922 17.6875 28.6875 C17.66494141 27.80642578 17.64238281 26.92535156 17.61914062 26.01757812 C17.5659668 24.74624023 17.5659668 24.74624023 17.51171875 23.44921875 C17.48553467 22.66893311 17.45935059 21.88864746 17.43237305 21.0847168 C16.89748415 18.50571269 16.07662981 17.582209 14 16 C10.87585686 15.68758569 9.00174224 15.99941925 6 17 C5.01780597 19.65605375 4.83277066 22.29632477 4.68359375 25.109375 C4.64169922 25.86347656 4.59980469 26.61757812 4.55664062 27.39453125 C4.49766602 28.56048828 4.49766602 28.56048828 4.4375 29.75 C4.39431641 30.54277344 4.35113281 31.33554688 4.30664062 32.15234375 C4.20097009 34.10137815 4.10002034 36.05066748 4 38 C2.68 38 1.36 38 0 38 C0 25.46 0 12.92 0 0 Z " fill="#014AAD" transform="translate(245,186)"/>
<path d="M0 0 C9.9 0 19.8 0 30 0 C30 1.32 30 2.64 30 4 C26.04 4 22.08 4 18 4 C18 15.22 18 26.44 18 38 C16.35 38 14.7 38 13 38 C13 26.78 13 15.56 13 4 C8.71 4 4.42 4 0 4 C0 2.68 0 1.36 0 0 Z " fill="#074FAF" transform="translate(93,186)"/>
<path d="M0 0 C11.88 0 23.76 0 36 0 C36 2.64 36 5.28 36 8 C24.12 8 12.24 8 0 8 C0 5.36 0 2.72 0 0 Z " fill="#001736" transform="translate(39,219)"/>
<path d="M0 0 C1.65 0 3.3 0 5 0 C5.01981934 0.56509277 5.03963867 1.13018555 5.06005859 1.71240234 C5.15518236 4.26707997 5.26491058 6.82092541 5.375 9.375 C5.4059375 10.26445312 5.436875 11.15390625 5.46875 12.0703125 C5.50742187 12.92109375 5.54609375 13.771875 5.5859375 14.6484375 C5.6173584 15.43395996 5.6487793 16.21948242 5.68115234 17.02880859 C5.8399465 19.23002939 5.8399465 19.23002939 8 21 C11.58343976 21.16677282 11.58343976 21.16677282 15 21 C18.12892533 14.06194818 18.66569599 7.56218722 19 0 C20.32 0 21.64 0 23 0 C23 8.58 23 17.16 23 26 C21.68 26 20.36 26 19 26 C18.67 24.68 18.34 23.36 18 22 C17.34 22.66 16.68 23.32 16 24 C11.86334406 26.75777063 9.91307062 26.62388198 5 26 C2.56880377 24.12984906 1.35930827 22.71861655 0 20 C-0.08372659 18.47851674 -0.10730027 16.95344222 -0.09765625 15.4296875 C-0.09443359 14.53378906 -0.09121094 13.63789063 -0.08789062 12.71484375 C-0.07951172 11.77769531 -0.07113281 10.84054688 -0.0625 9.875 C-0.05798828 8.93011719 -0.05347656 7.98523438 -0.04882812 7.01171875 C-0.03702357 4.67441613 -0.02055759 2.33723939 0 0 Z " fill="#0E54B1" transform="translate(277,198)"/>
<path d="M0 0 C2.97 0 5.94 0 9 0 C9.33 3.96 9.66 7.92 10 12 C10.66 11.67 11.32 11.34 12 11 C16.70777 10.60768583 19.07079697 10.52663242 23.3125 12.6875 C27.00728376 15.86673254 28.73887441 18.41621656 29.5390625 23.26953125 C29.56742187 24.43871094 29.59578125 25.60789063 29.625 26.8125 C29.67914063 27.97394531 29.73328125 29.13539063 29.7890625 30.33203125 C28.65937295 35.5834099 26.43682747 38.92313989 22 42 C18.11429789 42.93114428 14.52852272 42.76626695 10.5625 42.5 C7.076875 42.335 3.59125 42.17 0 42 C0 28.14 0 14.28 0 0 Z M2 2 C2 14.54 2 27.08 2 40 C3.65 40 5.3 40 7 40 C7.33 39.01 7.66 38.02 8 37 C8.39445312 37.48339844 8.78890625 37.96679688 9.1953125 38.46484375 C12.10744907 40.94205083 14.85898914 40.5891981 18.55078125 40.4921875 C21.32491494 39.93470609 22.25402569 39.31948437 24.0625 37.1875 C27.30914248 31.84624947 27.69581791 27.12891662 27 21 C25.36469994 17.72939988 24.0584308 15.77618259 21.125 13.625 C18.20173359 12.76521576 16.03665023 12.62816528 13 13 C11.35 14.32 9.7 15.64 8 17 C7.67 12.05 7.34 7.1 7 2 C5.35 2 3.7 2 2 2 Z " fill="#F2F4FB" transform="translate(309,184)"/>
<path d="M0 0 C3.125 -0.1875 3.125 -0.1875 6 0 C3 2 3 2 1 3 C1 5.31 1 7.62 1 10 C2.65 10.66 4.3 11.32 6 12 C6 15.96 6 19.92 6 24 C-42.18 23.67 -90.36 23.34 -140 23 C-140 22.67 -140 22.34 -140 22 C-92.48 22 -44.96 22 4 22 C4 19.36 4 16.72 4 14 C2.7934375 13.566875 2.7934375 13.566875 1.5625 13.125 C-1 12 -1 12 -2 10 C-2.35294118 3.52941176 -2.35294118 3.52941176 0 0 Z " fill="#00122B" transform="translate(229,233)"/>
<path d="M0 0 C1.65 0 3.3 0 5 0 C5 5.28 5 10.56 5 16 C5.66 16 6.32 16 7 16 C6.67 16.66 6.34 17.32 6 18 C4.38721998 22.83834006 4.38721998 27.16165994 6 32 C6.33 32.66 6.66 33.32 7 34 C6.34 34 5.68 34 5 34 C5 35.32 5 36.64 5 38 C3.35 38 1.7 38 0 38 C0 25.46 0 12.92 0 0 Z " fill="#024BAD" transform="translate(311,186)"/>
<path d="M0 0 C1.65 0 3.3 0 5 0 C5 12.54 5 25.08 5 38 C3.35 38 1.7 38 0 38 C0 25.46 0 12.92 0 0 Z " fill="#0C52B1" transform="translate(131,186)"/>
<path d="M0 0 C0.33 0 0.66 0 1 0 C1.33 3.3 1.66 6.6 2 10 C0.35 10.33 -1.3 10.66 -3 11 C-3.35462911 15.03133417 -3.35462911 15.03133417 -3 19 C-2.175 19.474375 -1.35 19.94875 -0.5 20.4375 C0.325 20.953125 1.15 21.46875 2 22 C2.46409851 25.03575023 2.28762219 27.95120475 2 31 C0.35 31.66 -1.3 32.32 -3 33 C-3 35.31 -3 37.62 -3 40 C-1.35 40.66 0.3 41.32 2 42 C2.28762219 45.04879525 2.46409851 47.96424977 2 51 C0.35178756 52.03013277 -1.31503702 53.03114628 -3 54 C-3.47568336 56.78694486 -3.23357485 59.15038679 -3 62 C-1.35 62.33 0.3 62.66 2 63 C2 63.99 2 64.98 2 66 C-4.21668598 63.81575898 -4.21668598 63.81575898 -6 61 C-6.77419355 54.03225806 -6.77419355 54.03225806 -4.125 50.5 C-2 49 -2 49 0 49 C0 47.35 0 45.7 0 44 C-0.804375 43.71125 -1.60875 43.4225 -2.4375 43.125 C-5 42 -5 42 -6 40 C-6.27182819 36.33031947 -6.45275856 33.84083732 -4.6875 30.5625 C-3 29 -3 29 0 29 C0 27.02 0 25.04 0 23 C-0.61875 22.896875 -1.2375 22.79375 -1.875 22.6875 C-4 22 -4 22 -6 19 C-6.44351586 14.93443799 -6.66104524 12.85935881 -4.125 9.5625 C-2 8 -2 8 0 8 C0 5.36 0 2.72 0 0 Z " fill="#000B1A" transform="translate(233,162)"/>
<path d="M0 0 C2.3181362 1.89111111 3.66914015 3.33828031 5 6 C5.08372659 7.52148326 5.10730027 9.04655778 5.09765625 10.5703125 C5.09443359 11.46621094 5.09121094 12.36210937 5.08789062 13.28515625 C5.07951172 14.22230469 5.07113281 15.15945312 5.0625 16.125 C5.05798828 17.06988281 5.05347656 18.01476562 5.04882812 18.98828125 C5.03702357 21.32558387 5.02055759 23.66276061 5 26 C3.35 26 1.7 26 0 26 C-0.01458252 25.44014404 -0.02916504 24.88028809 -0.04418945 24.3034668 C-0.11871352 21.76411863 -0.21535581 19.22607922 -0.3125 16.6875 C-0.33505859 15.80642578 -0.35761719 14.92535156 -0.38085938 14.01757812 C-0.41630859 13.17001953 -0.45175781 12.32246094 -0.48828125 11.44921875 C-0.51446533 10.66893311 -0.54064941 9.88864746 -0.56762695 9.0847168 C-1.10586626 6.48955845 -1.88388891 5.56577966 -4 4 C-7.12549017 3.74951364 -7.12549017 3.74951364 -10 4 C-9.625 2.0625 -9.625 2.0625 -9 0 C-5.81452856 -1.59273572 -3.39809153 -0.76164121 0 0 Z " fill="#0B51B0" transform="translate(263,198)"/>
<path d="M0 0 C3.3 0 6.6 0 10 0 C10 4.62 10 9.24 10 14 C9.34 14 8.68 14 8 14 C8.33 15.32 8.66 16.64 9 18 C8.34 18.33 7.68 18.66 7 19 C7 13.39 7 7.78 7 2 C5.68 2 4.36 2 3 2 C3.01571045 3.14065918 3.0314209 4.28131836 3.04760742 5.45654297 C3.10181524 9.6794532 3.13631653 13.90233256 3.16479492 18.12548828 C3.17990251 19.95496793 3.20038968 21.78441125 3.22631836 23.61376953 C3.26261585 26.23999992 3.27970615 28.86575249 3.29296875 31.4921875 C3.30845261 32.31306854 3.32393646 33.13394958 3.33988953 33.97970581 C3.34057617 36.28466797 3.34057617 36.28466797 3 40 C2.01 40.66 1.02 41.32 0 42 C0 28.14 0 14.28 0 0 Z " fill="#ABC2E4" transform="translate(242,184)"/>
<path d="M0 0 C11.88 0 23.76 0 36 0 C36 1.32 36 2.64 36 4 C24.12 4 12.24 4 0 4 C0 2.68 0 1.36 0 0 Z " fill="#001B41" transform="translate(39,242)"/>
<path d="M0 0 C11.88 0 23.76 0 36 0 C36 1.32 36 2.64 36 4 C24.12 4 12.24 4 0 4 C0 2.68 0 1.36 0 0 Z " fill="#001736" transform="translate(39,237)"/>
<path d="M0 0 C11.88 0 23.76 0 36 0 C36 1.32 36 2.64 36 4 C24.12 4 12.24 4 0 4 C0 2.68 0 1.36 0 0 Z " fill="#000E21" transform="translate(39,229)"/>
<path d="M0 0 C11.88 0 23.76 0 36 0 C36 1.32 36 2.64 36 4 C24.12 4 12.24 4 0 4 C0 2.68 0 1.36 0 0 Z " fill="#001736" transform="translate(39,205)"/>
<path d="M0 0 C11.88 0 23.76 0 36 0 C36 1.32 36 2.64 36 4 C24.12 4 12.24 4 0 4 C0 2.68 0 1.36 0 0 Z " fill="#001736" transform="translate(39,200)"/>
<path d="M0 0 C11.88 0 23.76 0 36 0 C36 1.32 36 2.64 36 4 C24.12 4 12.24 4 0 4 C0 2.68 0 1.36 0 0 Z " fill="#001736" transform="translate(39,189)"/>
<path d="M0 0 C11.88 0 23.76 0 36 0 C36 1.32 36 2.64 36 4 C24.12 4 12.24 4 0 4 C0 2.68 0 1.36 0 0 Z " fill="#000E21" transform="translate(39,184)"/>
<path d="M0 0 C11.88 0 23.76 0 36 0 C36 1.32 36 2.64 36 4 C24.12 4 12.24 4 0 4 C0 2.68 0 1.36 0 0 Z " fill="#00204C" transform="translate(39,173)"/>
<path d="M0 0 C1.7325 0.1546875 1.7325 0.1546875 3.5 0.3125 C6.03637054 4.11705581 6.09473663 6.85197531 5.5 11.3125 C4.3125 13.3125 4.3125 13.3125 2.5 14.3125 C0 14.6875 0 14.6875 -2.5 14.3125 C-4.65562942 12.68163001 -5.41650422 11.81616811 -5.86328125 9.12109375 C-5.84652344 8.33863281 -5.82976562 7.55617187 -5.8125 6.75 C-5.80863281 5.96496094 -5.80476563 5.17992187 -5.80078125 4.37109375 C-5.23824047 0.52097695 -3.68153445 0.32870843 0 0 Z " fill="#064EAE" transform="translate(323.5,203.6875)"/>
<path d="M0 0 C0.33 0 0.66 0 1 0 C1 8.58 1 17.16 1 26 C2.65 26 4.3 26 6 26 C5.97679687 24.81921875 5.95359375 23.6384375 5.9296875 22.421875 C5.91092503 20.86458967 5.89272534 19.30729748 5.875 17.75 C5.85824219 16.97269531 5.84148437 16.19539063 5.82421875 15.39453125 C5.76097702 7.99524928 5.76097702 7.99524928 8 5 C11 3 11 3 14.5625 3.125 C18 4 18 4 19.4375 6.0625 C19.623125 6.701875 19.80875 7.34125 20 8 C19.01 8 18.02 8 17 8 C17 7.34 17 6.68 17 6 C14.69 6.66 12.38 7.32 10 8 C9.67 14.6 9.34 21.2 9 28 C6.03 28 3.06 28 0 28 C0 18.76 0 9.52 0 0 Z " fill="#CEDBEF" transform="translate(243,198)"/>
<path d="M0 0 C0.86882812 0.01546875 1.73765625 0.0309375 2.6328125 0.046875 C4.875 0.25 4.875 0.25 6.875 1.25 C6.875 2.24 6.875 3.23 6.875 4.25 C5.97136719 4.21519531 5.06773437 4.18039063 4.13671875 4.14453125 C2.36748047 4.10392578 2.36748047 4.10392578 0.5625 4.0625 C-0.60925781 4.02769531 -1.78101563 3.99289063 -2.98828125 3.95703125 C-6.07589569 3.98031532 -6.07589569 3.98031532 -7.98046875 5.57421875 C-10.80663258 9.71218558 -10.60827051 14.44186795 -10.125 19.25 C-8.60297806 23.05839283 -8.60297806 23.05839283 -6.125 26.25 C-3.94207226 26.48481693 -1.75296826 26.66363323 0.4375 26.8125 C1.63503906 26.89628906 2.83257812 26.98007813 4.06640625 27.06640625 C5.45666016 27.15728516 5.45666016 27.15728516 6.875 27.25 C4.46934833 30.05783492 4.02363687 30.23294331 0.0625 30.6875 C-4.30565626 30.49478722 -6.84399989 29.22579079 -10.125 26.25 C-13.37782716 20.8286214 -14.0650716 15.51025701 -13.125 9.25 C-10.10584946 3.31952573 -6.8286927 -0.20384157 0 0 Z " fill="#DEE6F4" transform="translate(164.125,189.75)"/>
<path d="M0 0 C3.4375 0.6875 3.4375 0.6875 5.875 2.5625 C8.08335224 6.97920447 8.23041109 10.84011569 7.4375 15.6875 C5.875 18.3125 5.875 18.3125 3.4375 19.6875 C-0.93348953 20.40275283 -2.81873347 20.19389423 -6.5 17.6875 C-8.65409963 14.55426418 -9.31101975 12.5093219 -9.04296875 8.69140625 C-7.83615549 3.65811193 -5.16676629 0.99709525 0 0 Z M-5.5625 5.6875 C-5.91889561 7.79167968 -5.91889561 7.79167968 -5.875 10.125 C-5.89175781 10.90746094 -5.90851563 11.68992188 -5.92578125 12.49609375 C-5.47900422 15.19116811 -4.71812942 16.05663001 -2.5625 17.6875 C0.22594081 18.10576612 1.77224158 18.05453913 4.25 16.6875 C6.1087883 13.55690917 5.98895843 10.23975172 5.4375 6.6875 C4.7775 5.6975 4.1175 4.7075 3.4375 3.6875 C-1.59268857 3.05904252 -1.59268857 3.05904252 -5.5625 5.6875 Z " fill="#DEE6F4" transform="translate(323.5625,200.3125)"/>
<path d="M0 0 C4.48842654 2.28655691 6.79013467 4.51731022 9 9 C9.9330976 14.65943977 10.15768412 20.36751037 7.81640625 25.69140625 C5.25723648 29.1220439 3.37257632 30.77553041 -0.9140625 31.4765625 C-3.66065618 31.49785392 -6.27822082 31.3543727 -9 31 C-9 30.01 -9 29.02 -9 28 C-8.32453125 28.05800781 -7.6490625 28.11601562 -6.953125 28.17578125 C-1.16763947 28.62348153 -1.16763947 28.62348153 3.5625 25.6875 C6.34931725 20.47736341 6.51874908 15.7988737 6 10 C4.74024675 6.9765922 3.81021593 5.58670809 1.1875 3.6875 C-2.77112732 2.44335998 -6.10085113 2.70028371 -10 4 C-10 3.01 -10 2.02 -10 1 C-6.78314421 -0.60842789 -3.4888991 -0.46778535 0 0 Z " fill="#DCE5F4" transform="translate(329,195)"/>
<path d="M0 0 C1.32 0 2.64 0 4 0 C4 8.58 4 17.16 4 26 C2.68 26 1.36 26 0 26 C0 24.02 0 22.04 0 20 C-0.66 20 -1.32 20 -2 20 C-1.34 13.4 -0.68 6.8 0 0 Z " fill="#024CAD" transform="translate(296,198)"/>
<path d="M0 0 C3.3 0 6.6 0 10 0 C10 10.23 10 20.46 10 31 C9.01 30.34 8.02 29.68 7 29 C6.65942383 26.38623047 6.65942383 26.38623047 6.70703125 23.1171875 C6.71669922 21.95058594 6.72636719 20.78398437 6.73632812 19.58203125 C6.76146484 18.35871094 6.78660156 17.13539063 6.8125 15.875 C6.82603516 14.64394531 6.83957031 13.41289062 6.85351562 12.14453125 C6.88896457 9.09592157 6.93837921 6.048175 7 3 C5.68 3 4.36 3 3 3 C3 7.29 3 11.58 3 16 C2.01 16.33 1.02 16.66 0 17 C0 11.39 0 5.78 0 0 Z " fill="#8DADDA" transform="translate(293,195)"/>
<path d="M0 0 C11.88 0 23.76 0 36 0 C36 0.99 36 1.98 36 3 C24.12 3 12.24 3 0 3 C0 2.01 0 1.02 0 0 Z " fill="#003173" transform="translate(39,181)"/>
<path d="M0 0 C-1.65 0.66 -3.3 1.32 -5 2 C-5 4.64 -5 7.28 -5 10 C16.12 10 37.24 10 59 10 C59 10.33 59 10.66 59 11 C37.22 11 15.44 11 -7 11 C-7 7.37 -7 3.74 -7 0 C-3 -1 -3 -1 0 0 Z " fill="#001027" transform="translate(28,245)"/>
<path d="M0 0 C11.22 0 22.44 0 34 0 C34 1.98 34 3.96 34 6 C33.505 4.02 33.505 4.02 33 2 C22.77 2 12.54 2 2 2 C2 3.65 2 5.3 2 7 C5.63 7 9.26 7 13 7 C13 7.33 13 7.66 13 8 C8.71 8 4.42 8 0 8 C0 5.36 0 2.72 0 0 Z " fill="#F4F6FC" transform="translate(91,184)"/>
<path d="M0 0 C0.33 0 0.66 0 1 0 C1 2.97 1 5.94 1 9 C-3.62 9 -8.24 9 -13 9 C-13 18.9 -13 28.8 -13 39 C-13.33 39 -13.66 39 -14 39 C-14 28.11 -14 17.22 -14 6 C-10.04 6 -6.08 6 -2 6 C-1.67 4.68 -1.34 3.36 -1 2 C-0.67 1.34 -0.34 0.68 0 0 Z " fill="#CAD9EE" transform="translate(125,184)"/>
<path d="M0 0 C2.97 0.99 5.94 1.98 9 3 C7.89103679 8.17516166 5.72127801 10.57423254 1.8515625 13.8984375 C0 15 0 15 -4 15 C-4 14.34 -4 13.68 -4 13 C-2.3603125 12.1646875 -2.3603125 12.1646875 -0.6875 11.3125 C2.68037367 9.41040131 4.32185976 7.55370875 6 4 C4.35 3.67 2.7 3.34 1 3 C0.71125 3.639375 0.4225 4.27875 0.125 4.9375 C-1 7 -1 7 -3 8 C-3.66 7.34 -4.32 6.68 -5 6 C-4.360625 5.38125 -3.72125 4.7625 -3.0625 4.125 C-0.96116416 2.17402388 -0.96116416 2.17402388 0 0 Z " fill="#DCE5F4" transform="translate(174,210)"/>
<path d="M0 0 C3.125 -0.1875 3.125 -0.1875 6 0 C3 2 3 2 1 3 C1 5.31 1 7.62 1 10 C3.475 10.99 3.475 10.99 6 12 C6 15.96 6 19.92 6 24 C5.34 24 4.68 24 4 24 C4 20.7 4 17.4 4 14 C3.195625 13.71125 2.39125 13.4225 1.5625 13.125 C-1 12 -1 12 -2 10 C-2.35294118 3.52941176 -2.35294118 3.52941176 0 0 Z " fill="#000815" transform="translate(229,233)"/>
<path d="M0 0 C4.12215338 1.78002078 6.19232451 3.88251695 8 8 C7.6875 10.3125 7.6875 10.3125 7 12 C7 11.01 7 10.02 7 9 C6.34 9 5.68 9 5 9 C4.7525 8.38125 4.505 7.7625 4.25 7.125 C2.7091547 4.50556299 1.91019654 3.86519357 -1 3 C-5.10722806 3.29337343 -8.45016943 3.87010166 -12 6 C-12 5.01 -12 4.02 -12 3 C-8.10727398 -0.18495765 -4.92654201 -0.52784379 0 0 Z " fill="#DDE6F4" transform="translate(262,195)"/>
<path d="M0 0 C2.31 0 4.62 0 7 0 C7 9.24 7 18.48 7 28 C6.67 28 6.34 28 6 28 C6 19.42 6 10.84 6 2 C4.68 2 3.36 2 2 2 C2 6.29 2 10.58 2 15 C1.67 15 1.34 15 1 15 C0.67 10.05 0.34 5.1 0 0 Z " fill="#A3BDE1" transform="translate(294,196)"/>
<path d="M0 0 C1.1203033 1.68045495 2.21504396 3.38137245 3.20703125 5.140625 C5.8272319 7.85787012 7.98782509 7.60347822 11.6875 7.75 C12.86699219 7.80671875 14.04648438 7.8634375 15.26171875 7.921875 C16.16535156 7.94765625 17.06898438 7.9734375 18 8 C15.59434833 10.80783492 15.14863687 10.98294331 11.1875 11.4375 C6.85450533 11.26194589 4.28416947 9.89319692 1 7 C-0.4375 4.375 -0.4375 4.375 -1 2 C-0.67 1.34 -0.34 0.68 0 0 Z " fill="#BFD0EA" transform="translate(153,209)"/>
<path d="M0 0 C0.99 0.33 1.98 0.66 3 1 C1.58770591 5.49366302 -0.14183973 8.24417124 -4 11 C-7.70452299 11.41741104 -11.2890344 11.29245788 -15 11 C-15 10.01 -15 9.02 -15 8 C-14.32453125 8.05800781 -13.6490625 8.11601562 -12.953125 8.17578125 C-7.16763947 8.62348153 -7.16763947 8.62348153 -2.4375 5.6875 C-0.91205041 3.0171576 -0.91205041 3.0171576 0 0 Z " fill="#D2DEF1" transform="translate(335,215)"/>
<path d="M0 0 C0.99 0.33 1.98 0.66 3 1 C3.12375 2.11375 3.2475 3.2275 3.375 4.375 C3.6465813 8.03103677 3.6465813 8.03103677 6 10 C8.32275177 10.40047444 10.65739357 10.7397104 13 11 C12.67 11.66 12.34 12.32 12 13 C7.74981621 13.41668469 5.64657432 13.44022082 2.0625 11 C-0.70834355 6.96968211 -0.40691598 4.80160858 0 0 Z " fill="#BFD0EA" transform="translate(315,207)"/>
<path d="M0 0 C0.99 0.33 1.98 0.66 3 1 C6.38616749 1.26867576 9.77189532 1.4451204 13.1640625 1.62109375 C14.09992188 1.74613281 15.03578125 1.87117187 16 2 C16.33 2.66 16.66 3.32 17 4 C11.8825368 5.70582107 6.88765369 5.84751798 1.9375 3.625 C1.298125 3.08875 0.65875 2.5525 0 2 C0 1.34 0 0.68 0 0 Z " fill="#C6D5ED" transform="translate(154,222)"/>
<path d="M0 0 C0.99 0.33 1.98 0.66 3 1 C2.2884375 1.6496875 2.2884375 1.6496875 1.5625 2.3125 C-1.24537093 5.34500061 -1.23686134 8.73331628 -1.5625 12.6875 C-1.68818359 14.17830078 -1.68818359 14.17830078 -1.81640625 15.69921875 C-1.87699219 16.45847656 -1.93757812 17.21773437 -2 18 C-4.46996424 15.53003576 -4.32331778 14.66102667 -4.375 11.25 C-4.30240048 6.24063335 -3.1928679 3.79153063 0 0 Z " fill="#DFE7F5" transform="translate(155,193)"/>
<path d="M0 0 C0.66 0 1.32 0 2 0 C0.48446596 3.47775179 -1.5773456 5.9557984 -4.125 8.75 C-5.21167969 9.94882813 -5.21167969 9.94882813 -6.3203125 11.171875 C-6.87460938 11.77515625 -7.42890625 12.3784375 -8 13 C-8.66 12.34 -9.32 11.68 -10 11 C-8.38150935 9.16053461 -6.75581169 7.32848583 -5.125 5.5 C-4.66480469 4.97535156 -4.20460937 4.45070312 -3.73046875 3.91015625 C-2.52827924 2.56858245 -1.26754054 1.28000815 0 0 Z " fill="#D8E2F2" transform="translate(209,189)"/>
<path d="M0 0 C3.4375 0.875 3.4375 0.875 4.875 2.9375 C5.1534375 3.8965625 5.1534375 3.8965625 5.4375 4.875 C4.4475 4.875 3.4575 4.875 2.4375 4.875 C2.4375 4.215 2.4375 3.555 2.4375 2.875 C-0.91683109 3.82433899 -4.25496505 4.77248835 -7.5625 5.875 C-7.25 4 -7.25 4 -6.5625 1.875 C-3.5625 -0.125 -3.5625 -0.125 0 0 Z " fill="#CCD9EF" transform="translate(257.5625,201.125)"/>
<path d="M0 0 C1.68762851 1.6454378 3.3540349 3.31288577 5 5 C5 5.33 5 5.66 5 6 C1.04 6 -2.92 6 -7 6 C-7.66 4.68 -8.32 3.36 -9 2 C-6.03 2.33 -3.06 2.66 0 3 C0 2.01 0 1.02 0 0 Z " fill="#EAEFF9" transform="translate(222,220)"/>
<path d="M0 0 C3 1 3 1 4.0625 2.77734375 C4.371875 3.49019531 4.68125 4.20304688 5 4.9375 C6.42373705 8.20616298 6.87437458 8.91624972 10 11 C9.67 11.99 9.34 12.98 9 14 C4.2512635 10.83417567 2.02165086 7.21789216 0 2 C0 1.34 0 0.68 0 0 Z " fill="#D3DFF1" transform="translate(144,210)"/>
<path d="M0 0 C2 1.375 2 1.375 4 3 C4 3.66 4 4.32 4 5 C5.65 4.67 7.3 4.34 9 4 C9 3.34 9 2.68 9 2 C9.99 2.33 10.98 2.66 12 3 C12 3.66 12 4.32 12 5 C7.545 6.485 7.545 6.485 3 8 C0 3.375 0 3.375 0 0 Z " fill="#E4EBF7" transform="translate(171,192)"/>
<path d="M0 0 C0.33 0.66 0.66 1.32 1 2 C-0.24716797 2.19916016 -0.24716797 2.19916016 -1.51953125 2.40234375 C-2.60621094 2.57894531 -3.69289062 2.75554687 -4.8125 2.9375 C-5.89144531 3.11152344 -6.97039062 3.28554687 -8.08203125 3.46484375 C-11.04933356 3.93871921 -11.04933356 3.93871921 -14 5 C-14 4.01 -14 3.02 -14 2 C-9.35150485 -0.3992233 -5.08913926 -0.19957409 0 0 Z " fill="#BECFEA" transform="translate(168,183)"/>
<path d="M0 0 C0.33 0 0.66 0 1 0 C1.33 3.3 1.66 6.6 2 10 C0.35 10.33 -1.3 10.66 -3 11 C-3.33 13.31 -3.66 15.62 -4 18 C-6 15 -6 15 -5.8125 13 C-4.885644 10.7185083 -3.91639951 9.5331196 -2 8 C-1.34 8 -0.68 8 0 8 C0 5.36 0 2.72 0 0 Z " fill="#000D20" transform="translate(233,162)"/>
<path d="M0 0 C0.66 0 1.32 0 2 0 C3.28006797 1.78398614 4.47660351 3.62853906 5.625 5.5 C6.57246094 7.03140625 6.57246094 7.03140625 7.5390625 8.59375 C8.02117187 9.3878125 8.50328125 10.181875 9 11 C8.01 11.33 7.02 11.66 6 12 C4.99157547 10.56839732 3.99352109 9.12948547 3 7.6875 C2.1646875 6.48673828 2.1646875 6.48673828 1.3125 5.26171875 C0 3 0 3 0 0 Z " fill="#D4DFF1" transform="translate(206,210)"/>
<path d="M0 0 C0.28875 0.598125 0.5775 1.19625 0.875 1.8125 C2.66893173 5.63677624 2.66893173 5.63677624 6.125 7.6875 C6.74375 7.790625 7.3625 7.89375 8 8 C8 10.31 8 12.62 8 15 C7.67 15 7.34 15 7 15 C7 13.35 7 11.7 7 10 C5.824375 9.8453125 5.824375 9.8453125 4.625 9.6875 C2 9 2 9 0 6 C-0.125 2.8125 -0.125 2.8125 0 0 Z " fill="#00040B" transform="translate(227,196)"/>
<path d="M0 0 C0.33 0 0.66 0 1 0 C1 1.65 1 3.3 1 5 C0.34 5 -0.32 5 -1 5 C-1.33 5.66 -1.66 6.32 -2 7 C-4.97 6.67 -7.94 6.34 -11 6 C-11 5.67 -11 5.34 -11 5 C-9.1128125 4.5978125 -9.1128125 4.5978125 -7.1875 4.1875 C-3.96616837 3.39639559 -2.08552235 2.69891128 0 0 Z " fill="#BFD0EA" transform="translate(295,219)"/>
<path d="M0 0 C-0.5775 0.2475 -1.155 0.495 -1.75 0.75 C-4.41578402 2.23099112 -6.08202933 3.61907089 -8 6 C-8.80315654 9.14481791 -8.80315654 9.14481791 -9 12 C-9.33 12 -9.66 12 -10 12 C-10.08131463 10.56344146 -10.13933559 9.1255517 -10.1875 7.6875 C-10.22230469 6.88699219 -10.25710938 6.08648437 -10.29296875 5.26171875 C-10 3 -10 3 -8.71875 1.21875 C-5.96762333 -0.73204891 -3.25876943 -0.18445865 0 0 Z " fill="#E9EEF8" transform="translate(326,202)"/>
<path d="M0 0 C2.67359123 1.78239415 3.74340688 3.45910995 5.0625 6.375 C4.75 8.6875 4.75 8.6875 4.0625 10.375 C4.0625 9.385 4.0625 8.395 4.0625 7.375 C3.4025 7.375 2.7425 7.375 2.0625 7.375 C1.69125 6.4778125 1.69125 6.4778125 1.3125 5.5625 C-0.10120012 3.08852479 -1.58805383 1.94129745 -3.9375 0.375 C-1.9375 -0.625 -1.9375 -0.625 0 0 Z " fill="#CEDBEF" transform="translate(264.9375,196.625)"/>
<path d="M0 0 C2 3.75 2 3.75 2 6 C-4.93 5.505 -4.93 5.505 -12 5 C-12 4.67 -12 4.34 -12 4 C-8.04 4 -4.08 4 0 4 C0 2.68 0 1.36 0 0 Z " fill="#C0D1EB" transform="translate(123,186)"/>
<path d="M0 0 C1.65 0.33 3.3 0.66 5 1 C4.38125 1.20625 3.7625 1.4125 3.125 1.625 C0.15346355 3.54775888 -0.13024659 5.66594527 -1 9 C-2.1875 7.3125 -2.1875 7.3125 -3 5 C-1.625 2.25 -1.625 2.25 0 0 Z " fill="#000E22" transform="translate(230,191)"/>
<path d="M0 0 C1.65 0.33 3.3 0.66 5 1 C5 1.99 5 2.98 5 4 C1.37 3.67 -2.26 3.34 -6 3 C-6 2.67 -6 2.34 -6 2 C-4.02 1.67 -2.04 1.34 0 1 C0 0.67 0 0.34 0 0 Z " fill="#A5BEE2" transform="translate(166,190)"/>
<path d="M0 0 C1.98 0 3.96 0 6 0 C3 2 3 2 1 3 C0.34444881 5.52733235 0.34444881 5.52733235 0 8 C-1.125 6.25 -1.125 6.25 -2 4 C-1.125 1.75 -1.125 1.75 0 0 Z " fill="#051123" transform="translate(229,233)"/>
<path d="M0 0 C-0.66 0.66 -1.32 1.32 -2 2 C-2.99 2 -3.98 2 -5 2 C-5 3.98 -5 5.96 -5 8 C-5.33 8 -5.66 8 -6 8 C-6.33 5.69 -6.66 3.38 -7 1 C-3.375 -1.125 -3.375 -1.125 0 0 Z " fill="#000E21" transform="translate(28,224)"/>
<path d="M0 0 C3.375 -0.1875 3.375 -0.1875 7 0 C7.66 0.99 8.32 1.98 9 3 C6.27584084 4.36207958 4.87220643 3.86166193 2 3 C1.34 2.01 0.68 1.02 0 0 Z " fill="#ABC2E4" transform="translate(320,201)"/>
<path d="M0 0 C0.33 0 0.66 0 1 0 C1.1953125 2.01822917 1.390625 4.03645833 1.5859375 6.0546875 C1.86374749 8.22668245 1.86374749 8.22668245 4 10 C3.01 10.495 3.01 10.495 2 11 C1.01 10.67 0.02 10.34 -1 10 C-0.67 6.7 -0.34 3.4 0 0 Z " fill="#00132C" transform="translate(22,162)"/>
</svg>
