<?xml version="1.0" encoding="UTF-8"?>
<svg version="1.1" xmlns="http://www.w3.org/2000/svg" width="500" height="500">
<path d="M0 0 C1.23674236 0.00334608 1.23674236 0.00334608 2.49846941 0.00675976 C3.36770936 0.00519977 4.2369493 0.00363978 5.13252985 0.00203252 C8.06833372 -0.00198136 11.0040866 0.00121367 13.93989092 0.00434887 C16.03528918 0.00299499 18.1306872 0.00121514 20.22608477 -0.00096118 C25.93466137 -0.00553739 31.64321999 -0.00374512 37.35179693 -0.0005821 C43.31264505 0.00194087 49.27349159 -0.00039589 55.23433977 -0.00196826 C65.24768387 -0.00379029 75.2610206 -0.00138295 85.27436358 0.00337231 C96.86628644 0.00881351 108.45819172 0.00705344 120.05011415 0.00154591 C129.98469208 -0.00298607 139.9192647 -0.00363531 149.85384333 -0.00101542 C155.79514616 0.00054707 161.73644071 0.00074188 167.67774302 -0.00255191 C173.26315042 -0.00543179 178.84853506 -0.00345276 184.43393999 0.00234234 C186.48911094 0.00366937 188.54428379 0.00327679 190.59945399 0.00107968 C193.3947575 -0.00163408 196.18998708 0.00175214 198.98528582 0.00675976 C200.2186821 0.00341368 200.2186821 0.00341368 201.47699547 0 C207.07706958 0.01959347 207.07706958 0.01959347 209.30536944 1.13374341 C209.44041082 3.06933654 209.53738073 5.00761541 209.61786944 6.94624341 C209.70488116 8.56466137 209.70488116 8.56466137 209.79365069 10.21577466 C209.63251787 11.17870434 209.47138506 12.14163403 209.30536944 13.13374341 C206.82490069 14.83296216 206.82490069 14.83296216 204.30536944 16.13374341 C203.4720361 19.13374341 203.4720361 19.13374341 204.30536944 22.13374341 C205.13036944 22.56686841 205.95536944 22.99999341 206.80536944 23.44624341 C209.30536944 25.13374341 209.30536944 25.13374341 209.81318194 27.20796216 C209.93232353 29.67419318 209.89415943 31.73329191 209.30536944 34.13374341 C206.80536944 35.75874341 206.80536944 35.75874341 204.30536944 37.13374341 C203.88811265 40.75973763 203.88811265 40.75973763 204.30536944 44.13374341 C205.95536944 44.46374341 207.60536944 44.79374341 209.30536944 45.13374341 C210.19400983 48.6075195 210.58995508 50.48968117 209.11786944 53.82124341 C207.35151727 56.07486514 205.69076423 57.57089854 203.30536944 59.13374341 C203.42714631 61.04840707 203.42714631 61.04840707 204.30536944 63.13374341 C206.76863655 64.7784108 206.76863655 64.7784108 209.30536944 66.13374341 C209.63536944 66.79374341 209.96536944 67.45374341 210.30536944 68.13374341 C238.35536944 68.13374341 266.40536944 68.13374341 295.30536944 68.13374341 C288.37536944 67.63874341 288.37536944 67.63874341 281.30536944 67.13374341 C281.2807237 61.17061174 281.26253544 55.20750946 281.2504378 49.24433911 C281.24539666 47.21406042 281.23856387 45.18378538 281.22992998 43.1535188 C281.21785476 40.24196994 281.21213909 37.33046891 281.20771319 34.41889966 C281.2025519 33.50536221 281.19739062 32.59182477 281.19207293 31.65060437 C281.19187776 29.47798913 281.24325139 27.30547045 281.30536944 25.13374341 C282.30536944 24.13374341 282.30536944 24.13374341 284.33661944 24.00093091 C285.15130694 24.00350903 285.96599444 24.00608716 286.80536944 24.00874341 C288.02740069 24.00487622 288.02740069 24.00487622 289.27411944 24.00093091 C291.30536944 24.13374341 291.30536944 24.13374341 292.30536944 25.13374341 C292.53900825 26.98266287 292.71840578 28.83862372 292.86786944 30.69624341 C292.99355303 32.2141145 292.99355303 32.2141145 293.12177569 33.76264966 C293.18236162 34.54511059 293.24294756 35.32757153 293.30536944 36.13374341 C293.9460335 36.06413403 294.58669756 35.99452466 295.24677569 35.92280591 C300.09330394 35.61944646 303.43184142 35.61406104 307.30536944 38.75874341 C311.14711242 42.61856518 312.12040247 46.1361002 312.61786944 51.50874341 C312.14999603 56.93607488 310.77492058 61.28495325 307.36786944 65.57124341 C305.30536944 67.13374341 305.30536944 67.13374341 301.30536944 68.13374341 C304.93536944 68.46374341 308.56536944 68.79374341 312.30536944 69.13374341 C312.30536944 70.78374341 312.30536944 72.43374341 312.30536944 74.13374341 C310.36431322 74.14254277 310.36431322 74.14254277 308.38404375 74.15151989 C296.20019824 74.20868593 284.01653227 74.28141551 271.83286959 74.36945832 C265.56883309 74.41422187 259.30486254 74.45346489 253.040721 74.48017895 C246.99761331 74.50615205 240.95475859 74.54651212 234.91180712 74.59692967 C232.60412525 74.61363895 230.29639959 74.62512785 227.98866564 74.63135731 C224.76095477 74.6409541 221.53389704 74.66896098 218.306346 74.70137036 C217.3482503 74.69993527 216.39015459 74.69850018 215.40302569 74.6970216 C214.52245501 74.70955975 213.64188433 74.7220979 212.73462969 74.73501599 C211.9713851 74.73962495 211.20814051 74.74423392 210.42176729 74.74898255 C207.69519496 75.24467305 206.30712391 76.24099245 204.30536944 78.13374341 C203.55536944 81.13374341 203.55536944 81.13374341 204.30536944 84.13374341 C205.13036944 84.52561841 205.95536944 84.91749341 206.80536944 85.32124341 C207.63036944 85.91936841 208.45536944 86.51749341 209.30536944 87.13374341 C209.82947479 90.83035879 209.72782227 94.42822854 209.30536944 98.13374341 C207.48182605 99.9572868 204.61147467 99.27844124 202.16091448 99.29196179 C201.18682942 99.29936875 201.18682942 99.29936875 200.19306588 99.30692536 C197.99979022 99.32237698 195.80654403 99.3306828 193.61323076 99.33906567 C192.04601315 99.34864097 190.47879814 99.35865085 188.91158587 99.36906445 C184.63292446 99.39622595 180.35425198 99.41719196 176.07555133 99.43706644 C171.57585862 99.45896642 167.07619931 99.48635991 162.57653338 99.51312268 C154.98754409 99.55748955 147.39854252 99.5982217 139.80951983 99.63642895 C129.21417785 99.68977831 118.61888032 99.74962339 108.02358121 99.81082463 C99.70736185 99.85860131 91.39113181 99.90447554 83.07490069 99.95014966 C81.76598529 99.95737479 81.76598529 99.95737479 80.43062717 99.96474588 C68.38891143 100.03098463 56.34719188 100.09059507 44.30536944 100.13374341 C43.57830278 100.13638494 42.85123613 100.13902648 42.10213715 100.14174807 C37.28666183 100.15860608 32.47121053 100.16910372 27.65571123 100.17646801 C26.47725791 100.17996793 25.29880459 100.18346785 24.08464056 100.18707383 C13.80462224 100.19302659 3.56415762 99.76784069 -6.69463056 99.13374341 C-6.94378996 97.36561229 -7.16829688 95.59399359 -7.38213056 93.82124341 C-7.50974775 92.83511059 -7.63736494 91.84897778 -7.76884931 90.83296216 C-7.69463056 88.13374341 -7.69463056 88.13374341 -6.33916181 86.34077466 C-4.69463056 85.13374341 -4.69463056 85.13374341 -2.69463056 84.13374341 C-2.36065269 81.25961215 -2.36065269 81.25961215 -2.69463056 78.13374341 C-3.35463056 77.67999341 -4.01463056 77.22624341 -4.69463056 76.75874341 C-6.69463056 75.13374341 -6.69463056 75.13374341 -7.08525556 72.65327466 C-7.01564619 71.31329419 -7.01564619 71.31329419 -6.94463056 69.94624341 C-6.90853681 69.04518872 -6.87244306 68.14413403 -6.83525556 67.21577466 C-6.76564619 66.18516919 -6.76564619 66.18516919 -6.69463056 65.13374341 C-4.21963056 64.63874341 -4.21963056 64.63874341 -1.69463056 64.13374341 C-1.88148145 60.73840088 -1.88148145 60.73840088 -2.69463056 57.13374341 C-3.37525556 56.67999341 -4.05588056 56.22624341 -4.75713056 55.75874341 C-6.69463056 54.13374341 -6.69463056 54.13374341 -6.95634931 51.95796216 C-6.94568079 49.67134302 -6.86669368 47.4135797 -6.69463056 45.13374341 C-5.37463056 44.47374341 -4.05463056 43.81374341 -2.69463056 43.13374341 C-2.69463056 40.82374341 -2.69463056 38.51374341 -2.69463056 36.13374341 C-4.01463056 35.47374341 -5.33463056 34.81374341 -6.69463056 34.13374341 C-6.69463056 30.83374341 -6.69463056 27.53374341 -6.69463056 24.13374341 C-5.37463056 23.47374341 -4.05463056 22.81374341 -2.69463056 22.13374341 C-1.87592871 18.57167679 -1.87592871 18.57167679 -1.69463056 15.13374341 C-4.16963056 14.14374341 -4.16963056 14.14374341 -6.69463056 13.13374341 C-6.72149609 11.15464943 -6.74096432 9.1754537 -6.75713056 7.19624341 C-6.76873213 6.09409497 -6.78033369 4.99194653 -6.79228681 3.85639966 C-6.61651641 -1.04407929 -4.32762925 0.01519462 0 0 Z M-3.69463056 4.13374341 C-3.69463056 6.11374341 -3.69463056 8.09374341 -3.69463056 10.13374341 C-0.87953063 12.4110935 -0.87953063 12.4110935 2.30536944 12.13374341 C2.30536944 16.42374341 2.30536944 20.71374341 2.30536944 25.13374341 C0.32536944 25.79374341 -1.65463056 26.45374341 -3.69463056 27.13374341 C-3.56428562 29.00427738 -3.56428562 29.00427738 -2.69463056 31.13374341 C-1.42619306 31.99999341 -1.42619306 31.99999341 -0.13213056 32.88374341 C2.52940998 35.34055006 2.71612544 35.71950355 2.86786944 39.13374341 C2.67859964 42.2136792 2.38650556 43.02826644 0.43036944 45.57124341 C-1.69463056 47.13374341 -1.69463056 47.13374341 -3.69463056 48.13374341 C-3.5815636 50.09268701 -3.5815636 50.09268701 -2.69463056 52.13374341 C-1.04463056 52.79374341 0.60536944 53.45374341 2.30536944 54.13374341 C2.30536944 58.09374341 2.30536944 62.05374341 2.30536944 66.13374341 C0.98536944 66.79374341 -0.33463056 67.45374341 -1.69463056 68.13374341 C-2.96267622 70.16733821 -2.96267622 70.16733821 -3.69463056 72.13374341 C-2.89025556 72.58749341 -2.08588056 73.04124341 -1.25713056 73.50874341 C1.30536944 75.13374341 1.30536944 75.13374341 2.30536944 77.13374341 C2.90122833 82.32622807 2.90122833 82.32622807 2.30536944 85.13374341 C0.49620144 87.34377662 -1.28084127 88.52455055 -3.69463056 90.13374341 C-3.36463056 91.78374341 -3.03463056 93.43374341 -2.69463056 95.13374341 C27.50036944 95.62874341 27.50036944 95.62874341 58.30536944 96.13374341 C59.13086194 90.06309939 59.13086194 90.06309939 59.43235308 84.07212842 C59.4351729 83.37406079 59.43799273 82.67599316 59.440898 81.95677197 C59.43887377 81.22191571 59.43684954 80.48705945 59.43476397 79.72993481 C59.43651629 78.9321864 59.43826861 78.13443799 59.44007403 77.31251538 C59.44443816 74.70342275 59.44157557 72.09439909 59.43818194 69.48530591 C59.43885614 67.66307067 59.43982714 65.84083552 59.44108111 64.01860058 C59.44255035 60.21436207 59.44042693 56.41014714 59.43574053 52.60591137 C59.43001928 47.72323067 59.43334221 42.84060465 59.43931299 37.95792592 C59.44291874 34.20225114 59.44178038 30.44658943 59.4391852 26.69091427 C59.43851723 24.88952515 59.43933985 23.08813485 59.44166476 21.2867471 C59.44419411 18.77819405 59.44034779 16.26973112 59.43476397 13.76118481 C59.4367882 13.01418316 59.43881243 12.26718152 59.440898 11.49754345 C59.4901678 7.68936477 59.4901678 7.68936477 58.30536944 4.13374341 C37.84536944 4.13374341 17.38536944 4.13374341 -3.69463056 4.13374341 Z M62.30536944 4.13374341 C62.30536944 34.16374341 62.30536944 64.19374341 62.30536944 95.13374341 C64.81627276 96.38919507 66.52049548 96.25958484 69.33123308 96.26072705 C70.39509737 96.26354687 71.45896166 96.2663667 72.55506426 96.26927197 C74.31369799 96.26623562 74.31369799 96.26623562 76.10785967 96.26313794 C77.33893954 96.26489026 78.5700194 96.26664258 79.83840472 96.268448 C83.22323585 96.27210426 86.60800614 96.27123314 89.99283391 96.26806891 C93.5404591 96.26553838 97.08808167 96.26788526 100.63570696 96.26945508 C106.60364281 96.27127688 112.57156632 96.26887241 118.5395003 96.2641145 C125.41712812 96.25869427 132.29472619 96.26041811 139.17235327 96.2659409 C145.08674421 96.2704986 151.00112627 96.27110897 156.9155184 96.26850224 C160.44314761 96.26695113 163.97076292 96.26671302 167.49839121 96.27003872 C171.4450484 96.27349886 175.39167316 96.26868455 179.33832842 96.26313794 C181.06963503 96.26617428 181.06963503 96.26617428 182.83591753 96.26927197 C189.71253825 96.25146982 196.46930158 95.88451725 203.30536944 95.13374341 C203.96536944 93.48374341 204.62536944 91.83374341 205.30536944 90.13374341 C204.48036944 89.32936841 203.65536944 88.52499341 202.80536944 87.69624341 C199.83282959 84.20455576 199.87273878 81.33871989 200.12958819 76.89155591 C200.187596 76.31147778 200.24560381 75.73139966 200.30536944 75.13374341 C197.72097149 73.84154443 195.87254784 74.01078343 192.9777022 74.01348889 C191.84745623 74.01211422 190.71721026 74.01073956 189.55271441 74.00932324 C188.306906 74.01291852 187.06109759 74.01651379 185.77753741 74.02021801 C183.81663164 74.01999897 183.81663164 74.01999897 181.81611162 74.01977551 C178.22542182 74.0194879 174.63476524 74.02537874 171.04408318 74.03234947 C167.29378813 74.03858907 163.54349236 74.03918729 159.79319292 74.04037488 C152.68880912 74.0434864 145.58444066 74.05169738 138.48006362 74.06172436 C130.39311155 74.07289105 122.30615876 74.07839736 114.21920091 74.0834198 C97.5812481 74.09388013 80.94331072 74.11147612 64.30536944 74.13374341 C64.30536944 72.48374341 64.30536944 70.83374341 64.30536944 69.13374341 C109.84536944 69.13374341 155.38536944 69.13374341 202.30536944 69.13374341 C201.31536944 67.15374341 201.31536944 67.15374341 200.30536944 65.13374341 C200.30536944 65.79374341 200.30536944 66.45374341 200.30536944 67.13374341 C196.01536944 67.13374341 191.72536944 67.13374341 187.30536944 67.13374341 C186.31536944 64.65874341 186.31536944 64.65874341 185.30536944 62.13374341 C183.97340902 60.00207181 182.5956597 57.89852428 181.18036944 55.82124341 C180.09368975 54.21829419 180.09368975 54.21829419 178.98505694 52.58296216 C178.43076006 51.77471997 177.87646319 50.96647778 177.30536944 50.13374341 C174.43669435 51.4197012 172.15597939 52.5497648 170.30536944 55.13374341 C169.94217635 58.10567103 169.94217635 58.10567103 170.11786944 61.32124341 C170.14493975 62.40792309 170.17201006 63.49460278 170.19990069 64.61421216 C170.25210772 65.86138012 170.25210772 65.86138012 170.30536944 67.13374341 C167.00536944 67.13374341 163.70536944 67.13374341 160.30536944 67.13374341 C160.30536944 52.94374341 160.30536944 38.75374341 160.30536944 24.13374341 C163.60536944 24.13374341 166.90536944 24.13374341 170.30536944 24.13374341 C170.30536944 30.07374341 170.30536944 36.01374341 170.30536944 42.13374341 C174.81792811 38.50407664 178.35292806 34.83735807 181.99286944 30.32124341 C185.80160514 25.99020034 188.14343444 24.39611114 193.93036944 23.94624341 C195.72309034 23.95753258 197.51748612 24.00164893 199.30536944 24.13374341 C199.31954912 23.55366528 199.33372881 22.97358716 199.34833819 22.37593091 C199.72076445 16.27619258 200.98526545 13.45384739 205.30536944 9.13374341 C204.08529 6.4431906 204.08529 6.4431906 202.30536944 4.13374341 C200.49576072 4.03732843 198.68234815 4.01186943 196.87017351 4.01348889 C195.10113917 4.01142689 195.10113917 4.01142689 193.29636675 4.00932324 C191.33810457 4.01471615 191.33810457 4.01471615 189.34028155 4.02021801 C187.96084126 4.02049988 186.58140082 4.02034216 185.20196062 4.01977551 C181.44592825 4.01948753 177.68992755 4.02538436 173.93390256 4.03234947 C170.01276899 4.0385829 166.09163476 4.0391868 162.170497 4.04037488 C154.74025333 4.04348822 147.3100243 4.05170166 139.87978709 4.06172436 C129.84284602 4.07497061 119.80590098 4.08038538 109.76895338 4.08622658 C93.94774776 4.09564155 78.12657304 4.11556044 62.30536944 4.13374341 Z M200.30536944 25.13374341 C197.59361972 27.67157726 194.9157841 30.24258769 192.24286944 32.82124341 C191.47136553 33.54247387 190.69986162 34.26370434 189.90497881 35.00679028 C189.17988116 35.712552 188.4547835 36.41831372 187.70771319 37.14546216 C187.03216387 37.78959057 186.35661455 38.43371899 185.66059405 39.09736645 C184.05010426 41.0768673 184.05010426 41.0768673 184.44282061 43.65400708 C185.28631545 46.07896523 186.17235578 47.7519138 187.70380694 49.79780591 C188.18333819 50.44491528 188.66286944 51.09202466 189.15693194 51.75874341 C189.65966631 52.41874341 190.16240069 53.07874341 190.68036944 53.75874341 C191.17536944 54.42647778 191.67036944 55.09421216 192.18036944 55.78218091 C194.41116029 58.76452162 196.62143886 61.54219272 199.30536944 64.13374341 C199.20224444 63.28811841 199.09911944 62.44249341 198.99286944 61.57124341 C199.40851004 56.99919678 201.44066408 54.59185202 204.30536944 51.13374341 C203.20850026 48.8556305 202.11467432 46.87242047 200.61786944 44.82124341 C198.81464124 41.12891901 199.25305427 39.06238671 200.30536944 35.13374341 C201.6291846 33.45950658 202.96113604 31.79163126 204.30536944 30.13374341 C204.41083312 27.88367056 204.41083312 27.88367056 203.30536944 26.13374341 C202.31536944 25.80374341 201.32536944 25.47374341 200.30536944 25.13374341 Z M163.30536944 27.13374341 C163.30536944 39.67374341 163.30536944 52.21374341 163.30536944 65.13374341 C164.62536944 65.13374341 165.94536944 65.13374341 167.30536944 65.13374341 C167.28474444 64.43249341 167.26411944 63.73124341 167.24286944 63.00874341 C167.37269202 57.03690459 168.01717127 53.72020969 172.36786944 49.44624341 C173.65740912 48.31534656 174.96276354 47.2010998 176.30536944 46.13374341 C178.44529305 48.16508083 180.1361416 50.20609243 181.75068194 52.67280591 C182.18767412 53.33538403 182.62466631 53.99796216 183.07490069 54.68061841 C183.74585772 55.70929028 183.74585772 55.70929028 184.43036944 56.75874341 C187.10192367 61.1637034 187.10192367 61.1637034 190.30536944 65.13374341 C191.97154059 65.17438173 193.63925039 65.17646441 195.30536944 65.13374341 C192.44167144 59.98845425 189.34957939 55.07531308 186.05536944 50.19624341 C185.59646319 49.51239575 185.13755694 48.82854809 184.66474444 48.12397778 C183.54708593 46.45913229 182.42653224 44.796231 181.30536944 43.13374341 C182.88230355 39.23672232 185.41698446 36.8847661 188.43036944 34.00874341 C190.09260376 32.42185115 191.72761289 30.80465163 193.30536944 29.13374341 C193.30536944 28.47374341 193.30536944 27.81374341 193.30536944 27.13374341 C189.4002482 27.65205188 187.45653344 28.4866245 184.71161944 31.30171216 C184.0735335 31.948177 183.43544756 32.59464184 182.77802569 33.26069653 C182.12704912 33.940677 181.47607256 34.62065747 180.80536944 35.32124341 C180.15439287 35.98188794 179.50341631 36.64253247 178.83271319 37.32319653 C175.10492195 41.13759302 171.73790145 45.01470499 168.30536944 49.13374341 C167.97536944 41.87374341 167.64536944 34.61374341 167.30536944 27.13374341 C165.98536944 27.13374341 164.66536944 27.13374341 163.30536944 27.13374341 Z M285.30536944 27.13374341 C283.91013088 28.30123339 283.91013088 28.30123339 284.19184405 31.5519563 C284.19200316 33.07011329 284.19769718 34.58827569 284.20771319 36.10639966 C284.20912813 36.90404233 284.21054308 37.70168499 284.21200091 38.52349865 C284.21761627 41.08111776 284.23017132 43.63865058 284.24286944 46.19624341 C284.24788246 47.92605985 284.25244571 49.65587767 284.25654131 51.38569653 C284.26759069 55.63507894 284.28486557 59.88439652 284.30536944 64.13374341 C285.95536944 64.46374341 287.60536944 64.79374341 289.30536944 65.13374341 C289.63536944 63.81374341 289.96536944 62.49374341 290.30536944 61.13374341 C290.98599444 61.79374341 291.66661944 62.45374341 292.36786944 63.13374341 C296.06809476 65.65304576 297.90853504 65.8403775 302.30536944 65.13374341 C305.92776953 62.31632111 308.30442964 59.6379725 309.30536944 55.13374341 C309.37110674 50.16236002 309.05619035 46.32052486 306.36786944 42.07124341 C303.09040511 38.99241328 300.83030075 38.97499555 296.37568194 38.80561841 C293.76179647 39.05457531 293.76179647 39.05457531 290.30536944 42.13374341 C289.97536944 37.18374341 289.64536944 32.23374341 289.30536944 27.13374341 C287.98536944 27.13374341 286.66536944 27.13374341 285.30536944 27.13374341 Z " fill="#000321" transform="translate(26.694630563259125,158.8662565946579)"/>
<path d="M0 0 C0.97669995 4.08429343 1.12901125 7.90770171 1.1328125 12.1015625 C1.13376923 12.77867279 1.13472595 13.45578308 1.13571167 14.15341187 C1.13638994 15.5838836 1.13456034 17.01435846 1.13037109 18.44482422 C1.12506799 20.59740417 1.130302 22.74977066 1.13671875 24.90234375 C1.13939321 31.88297856 0.92084404 38.75734546 0.19140625 45.70654297 C-0.06417792 48.76898903 0.12985927 51.6963809 0.4375 54.75 C0.88111608 59.9524067 1.11561586 65.09491875 1.125 70.3125 C1.12886719 72.19388672 1.12886719 72.19388672 1.1328125 74.11328125 C1 77 1 77 0 78 C-2.63120557 78.10100963 -5.23558698 78.13970483 -7.8671875 78.1328125 C-8.65771515 78.13376923 -9.4482428 78.13472595 -10.26272583 78.13571167 C-11.938986 78.13639359 -13.61524878 78.13453849 -15.29150391 78.13037109 C-17.85715695 78.1250371 -20.42263379 78.13030833 -22.98828125 78.13671875 C-24.61458372 78.13605769 -26.24088608 78.13477596 -27.8671875 78.1328125 C-28.63602264 78.13483673 -29.40485779 78.13686096 -30.19699097 78.13894653 C-33.39568594 78.12488979 -35.94314266 78.01895245 -39 77 C-39.02705308 74.58325776 -39.04686438 72.1668206 -39.0625 69.75 C-39.07087891 69.06808594 -39.07925781 68.38617188 -39.08789062 67.68359375 C-39.11341323 62.42593686 -39.11341323 62.42593686 -38.50099182 60.12591553 C-37.87567161 57.47242323 -37.88044225 55.04010499 -37.88647461 52.31347656 C-37.88655014 51.17259583 -37.88662567 50.03171509 -37.88670349 48.85626221 C-37.89186478 47.63010193 -37.89702606 46.40394165 -37.90234375 45.140625 C-37.90446617 43.25135284 -37.90446617 43.25135284 -37.90663147 41.32391357 C-37.91127927 37.98334881 -37.92025719 34.64285279 -37.93133545 31.30230713 C-37.94158402 27.8903462 -37.94613646 24.47837815 -37.95117188 21.06640625 C-37.96220037 14.3775852 -37.97893811 7.68879657 -38 1 C-33.55260992 0.85636328 -29.10518169 0.71398908 -24.65771484 0.57275391 C-23.1466362 0.52459332 -21.63556825 0.47609561 -20.12451172 0.42724609 C-17.94501469 0.35684705 -15.76548128 0.2876847 -13.5859375 0.21875 C-12.2767334 0.17685547 -10.9675293 0.13496094 -9.61865234 0.09179688 C-6.4102027 0.0104059 -3.20924365 -0.01737074 0 0 Z " fill="#01020D" transform="translate(75,171)"/>
<path d="M0 0 C0.8146875 0.00257813 1.629375 0.00515625 2.46875 0.0078125 C3.2834375 0.00523437 4.098125 0.00265625 4.9375 0 C6.96875 0.1328125 6.96875 0.1328125 7.96875 1.1328125 C8.20238881 2.98173196 8.38178635 4.83769281 8.53125 6.6953125 C8.61503906 7.70722656 8.69882812 8.71914062 8.78515625 9.76171875 C8.84574219 10.54417969 8.90632812 11.32664063 8.96875 12.1328125 C9.60941406 12.06320313 10.25007812 11.99359375 10.91015625 11.921875 C15.7566845 11.61851556 19.09522199 11.61313014 22.96875 14.7578125 C26.81049298 18.61763427 27.78378304 22.1351693 28.28125 27.5078125 C27.8133766 32.93514397 26.43830115 37.28402235 23.03125 41.5703125 C20.96875 43.1328125 20.96875 43.1328125 16.96875 44.1328125 C20.59875 44.4628125 24.22875 44.7928125 27.96875 45.1328125 C27.96875 46.7828125 27.96875 48.4328125 27.96875 50.1328125 C-54.72002051 50.93969991 -137.3478893 51.57131692 -220.03125 50.1328125 C-220.03125 48.4828125 -220.03125 46.8328125 -220.03125 45.1328125 C-105.68625 44.6378125 -105.68625 44.6378125 10.96875 44.1328125 C4.03875 43.6378125 4.03875 43.6378125 -3.03125 43.1328125 C-3.05589574 37.16968084 -3.074084 31.20657855 -3.08618164 25.2434082 C-3.09122278 23.21312952 -3.09805557 21.18285448 -3.10668945 19.15258789 C-3.11876467 16.24103903 -3.12448034 13.329538 -3.12890625 10.41796875 C-3.13406754 9.5044313 -3.13922882 8.59089386 -3.14454651 7.64967346 C-3.14474168 5.47705823 -3.09336805 3.30453954 -3.03125 1.1328125 C-2.03125 0.1328125 -2.03125 0.1328125 0 0 Z M0.96875 3.1328125 C-0.42648855 4.30030249 -0.42648855 4.30030249 -0.14477539 7.55102539 C-0.14461628 9.06918238 -0.13892226 10.58734479 -0.12890625 12.10546875 C-0.1274913 12.90311142 -0.12607635 13.70075409 -0.12461853 14.52256775 C-0.11900316 17.08018685 -0.10644812 19.63771968 -0.09375 22.1953125 C-0.08873698 23.92512895 -0.08417373 25.65494676 -0.08007812 27.38476562 C-0.06902875 31.63414803 -0.05175386 35.88346562 -0.03125 40.1328125 C1.61875 40.4628125 3.26875 40.7928125 4.96875 41.1328125 C5.29875 39.8128125 5.62875 38.4928125 5.96875 37.1328125 C6.649375 37.7928125 7.33 38.4528125 8.03125 39.1328125 C11.73147533 41.65211485 13.5719156 41.8394466 17.96875 41.1328125 C21.59115009 38.31539021 23.9678102 35.63704159 24.96875 31.1328125 C25.0344873 26.16142912 24.71957092 22.31959395 22.03125 18.0703125 C18.75378568 14.99148238 16.49368131 14.97406464 12.0390625 14.8046875 C9.42517703 15.05364441 9.42517703 15.05364441 5.96875 18.1328125 C5.63875 13.1828125 5.30875 8.2328125 4.96875 3.1328125 C3.64875 3.1328125 2.32875 3.1328125 0.96875 3.1328125 Z " fill="#E8F6FD" transform="translate(311.03125,182.8671875)"/>
<path d="M0 0 C1.40897804 0.00333092 1.40897804 0.00333092 2.84642029 0.00672913 C3.90744461 0.00680466 4.96846893 0.00688019 6.06164551 0.00695801 C7.21579453 0.01211929 8.36994354 0.01728058 9.55906677 0.02259827 C10.73404221 0.02401321 11.90901764 0.02542816 13.11959839 0.02688599 C16.88981116 0.0325046 20.65996556 0.04506026 24.43016052 0.05775452 C26.97898779 0.06276712 29.52781599 0.06733044 32.0766449 0.07142639 C38.34033685 0.08248007 44.60399452 0.0992363 50.86766052 0.12025452 C50.86766052 0.45025452 50.86766052 0.78025452 50.86766052 1.12025452 C43.90729869 2.66432092 36.80396236 2.16740974 29.72117615 2.08119202 C24.30452112 2.04064313 19.23074613 2.2786024 13.86766052 3.12025452 C11.38924832 3.1848638 8.90930229 3.20636539 6.43016052 3.18275452 C5.19394958 3.17373108 3.95773865 3.16470764 2.68406677 3.15541077 C1.75465271 3.1438092 0.82523865 3.13220764 -0.13233948 3.12025452 C-0.13233948 5.43025452 -0.13233948 7.74025452 -0.13233948 10.12025452 C0.83703552 10.40900452 1.80641052 10.69775452 2.80516052 10.99525452 C5.86766052 12.12025452 5.86766052 12.12025452 6.86766052 14.12025452 C7.38698984 18.53029691 7.67327609 21.98128079 5.05516052 25.68275452 C2.86766052 27.12025452 2.86766052 27.12025452 -0.13233948 27.12025452 C0.6371401 30.40897943 0.6371401 30.40897943 3.93016052 32.30775452 C5.8438573 33.83778745 6.73680043 34.67837761 7.43797302 37.04603577 C7.672782 41.20215468 7.14619977 42.76841547 4.49266052 46.12025452 C1.86766052 48.12025452 1.86766052 48.12025452 -0.13233948 48.12025452 C1.12384127 51.88879675 2.52780758 52.19983908 5.86766052 54.12025452 C7.47548995 57.33591337 7.48292563 60.6426691 6.86766052 64.12025452 C4.49266052 66.93275452 4.49266052 66.93275452 1.86766052 69.12025452 C1.20766052 70.11025452 0.54766052 71.10025452 -0.13233948 72.12025452 C0.65141052 72.38837952 1.43516052 72.65650452 2.24266052 72.93275452 C4.86766052 74.12025452 4.86766052 74.12025452 6.86766052 77.12025452 C7.53479047 82.29051164 7.53479047 82.29051164 6.86766052 85.12025452 C5.52391052 86.57728577 5.52391052 86.57728577 3.86766052 87.80775452 C2.87766052 88.57087952 1.88766052 89.33400452 0.86766052 90.12025452 C0.61724604 92.71715122 0.61724604 92.71715122 0.86766052 95.12025452 C1.87791039 95.1169236 1.87791039 95.1169236 2.90856934 95.11352539 C9.93293221 95.09136232 16.95728512 95.07630191 23.98167419 95.06532288 C26.60146997 95.06030132 29.22126295 95.05348281 31.84104919 95.04481506 C35.61164541 95.03265416 39.38220449 95.02700434 43.15281677 95.02259827 C44.31974564 95.01743698 45.4866745 95.0122757 46.68896484 95.00695801 C52.19126746 95.0065804 57.44984276 95.13115197 62.86766052 96.12025452 C62.86766052 95.46025452 62.86766052 94.80025452 62.86766052 94.12025452 C63.58156134 94.28263548 64.29546215 94.44501644 65.03099632 94.61231804 C67.84376346 95.11597548 70.39985892 95.24607473 73.25428772 95.24723816 C74.322276 95.25005798 75.39026428 95.25287781 76.49061584 95.25578308 C77.6522525 95.25375885 78.81388916 95.25173462 80.01072693 95.24964905 C81.85800385 95.25227753 81.85800385 95.25227753 83.74259949 95.25495911 C87.1148569 95.25860366 90.48705286 95.25775208 93.85930681 95.25458002 C97.39890657 95.2520418 100.93850377 95.25439834 104.47810364 95.25596619 C110.42811044 95.25778504 116.37810483 95.2553905 122.32810974 95.25062561 C129.18364673 95.24519854 136.03915391 95.24693545 142.89469016 95.25245202 C148.79640284 95.25700921 154.69810661 95.25762054 160.59982049 95.25501335 C164.11734465 95.25346293 167.63485486 95.25322236 171.15237808 95.25654984 C175.0843392 95.26000935 179.01626775 95.25519645 182.94822693 95.24964905 C184.0977182 95.25167328 185.24720947 95.25369751 186.43153381 95.25578308 C193.29691733 95.237939 200.04272376 94.86916322 206.86766052 94.12025452 C207.59271102 92.26909709 207.59271102 92.26909709 207.86766052 90.12025452 C206.60013518 88.65772528 205.32937924 87.197455 204.02391052 85.76869202 C202.04509227 82.94753897 202.43298456 80.41137248 202.86766052 77.12025452 C203.85766052 75.63525452 203.85766052 75.63525452 204.86766052 74.12025452 C208.49266052 73.93275452 208.49266052 73.93275452 211.86766052 74.12025452 C211.20766052 74.65650452 210.54766052 75.19275452 209.86766052 75.74525452 C207.62686831 78.00823387 207.62686831 78.00823387 207.30516052 81.18275452 C207.49078552 82.15212952 207.67641052 83.12150452 207.86766052 84.12025452 C208.69266052 84.51212952 209.51766052 84.90400452 210.36766052 85.30775452 C211.19266052 85.90587952 212.01766052 86.50400452 212.86766052 87.12025452 C213.39176587 90.8168699 213.29011336 94.41473965 212.86766052 98.12025452 C211.04411713 99.94379791 208.17376576 99.26495235 205.72320557 99.2784729 C204.74912051 99.28587987 204.74912051 99.28587987 203.75535697 99.29343647 C201.56208131 99.30888809 199.36883511 99.31719391 197.17552185 99.32557678 C195.60830424 99.33515209 194.04108922 99.34516196 192.47387695 99.35557556 C188.19521554 99.38273706 183.91654306 99.40370307 179.63784242 99.42357755 C175.13814971 99.44547754 170.6384904 99.47287102 166.13882446 99.49963379 C158.54983517 99.54400066 150.96083361 99.58473281 143.37181091 99.62294006 C132.77646893 99.67628942 122.18117141 99.73613451 111.58587229 99.79733574 C103.26965294 99.84511242 94.9534229 99.89098665 86.63719177 99.93666077 C85.32827638 99.9438859 85.32827638 99.9438859 83.99291825 99.95125699 C71.95120251 100.01749574 59.90948297 100.07710618 47.86766052 100.12025452 C47.14059387 100.12289606 46.41352721 100.1255376 45.66442823 100.12825918 C40.84895291 100.14511719 36.03350161 100.15561483 31.21800232 100.16297913 C30.039549 100.16647904 28.86109568 100.16997896 27.64693165 100.17358494 C17.36691333 100.1795377 7.12644871 99.7543518 -3.13233948 99.12025452 C-3.38149887 97.3521234 -3.6060058 95.5805047 -3.81983948 93.80775452 C-3.94745667 92.8216217 -4.07507385 91.83548889 -4.20655823 90.81947327 C-4.13233948 88.12025452 -4.13233948 88.12025452 -2.77687073 86.32728577 C-1.13233948 85.12025452 -1.13233948 85.12025452 0.86766052 84.12025452 C1.2016384 81.24612327 1.2016384 81.24612327 0.86766052 78.12025452 C0.20766052 77.66650452 -0.45233948 77.21275452 -1.13233948 76.74525452 C-3.13233948 75.12025452 -3.13233948 75.12025452 -3.52296448 72.63978577 C-3.4533551 71.2998053 -3.4533551 71.2998053 -3.38233948 69.93275452 C-3.34624573 69.03169983 -3.31015198 68.13064514 -3.27296448 67.20228577 C-3.2033551 66.1716803 -3.2033551 66.1716803 -3.13233948 65.12025452 C-0.65733948 64.62525452 -0.65733948 64.62525452 1.86766052 64.12025452 C1.68080964 60.72491199 1.68080964 60.72491199 0.86766052 57.12025452 C0.18703552 56.66650452 -0.49358948 56.21275452 -1.19483948 55.74525452 C-3.13233948 54.12025452 -3.13233948 54.12025452 -3.39405823 51.94447327 C-3.38338971 49.65785413 -3.30440259 47.40009081 -3.13233948 45.12025452 C-1.81233948 44.46025452 -0.49233948 43.80025452 0.86766052 43.12025452 C0.86766052 40.81025452 0.86766052 38.50025452 0.86766052 36.12025452 C-0.45233948 35.46025452 -1.77233948 34.80025452 -3.13233948 34.12025452 C-3.13233948 30.82025452 -3.13233948 27.52025452 -3.13233948 24.12025452 C-1.81233948 23.46025452 -0.49233948 22.80025452 0.86766052 22.12025452 C1.68636237 18.55818791 1.68636237 18.55818791 1.86766052 15.12025452 C-0.60733948 14.13025452 -0.60733948 14.13025452 -3.13233948 13.12025452 C-3.15920501 11.14116054 -3.17867323 9.16196481 -3.19483948 7.18275452 C-3.20644104 6.08060608 -3.2180426 4.97845764 -3.22999573 3.84291077 C-3.09842567 0.17473751 -3.09842567 0.17473751 0 0 Z " fill="#000115" transform="translate(23.132339477539063,158.87974548339844)"/>
<path d="M0 0 C3.3 0 6.6 0 10 0 C10.33 5.61 10.66 11.22 11 17 C12.340625 15.68 13.68125 14.36 15.0625 13 C15.89394531 12.18660156 16.72539062 11.37320313 17.58203125 10.53515625 C19.74340885 8.26902691 21.44336538 5.98135077 23.25 3.4375 C25.60616562 0.61122058 26.61602179 0.05730345 30.32421875 -0.49609375 C33.58895974 -0.4996232 36.75558595 -0.3512749 40 0 C38.68404559 2.94648117 37.30735913 4.89142533 34.92578125 7.05859375 C34.34119141 7.60966797 33.75660156 8.16074219 33.15429688 8.72851562 C31.92205728 9.87189807 30.68237074 11.00730471 29.43554688 12.13476562 C26.01756778 15.2165566 26.01756778 15.2165566 24.76953125 19.4375 C26.55253284 23.15067156 28.87391512 26.30147009 31.375 29.5625 C31.87 30.22185547 32.365 30.88121094 32.875 31.56054688 C34.84095247 34.17568419 36.82131237 36.7741901 38.8515625 39.33984375 C40 41 40 41 40 43 C35.40741031 43.89438377 31.5537078 44.19834416 27 43 C22.2058572 38.71415946 18.99781374 31.99344123 17 26 C14.31974775 27.59674602 12.81375215 28.52945737 11 31 C10.17294884 35.00001472 10.01300707 38.92228315 10 43 C6.7 43 3.4 43 0 43 C0 28.81 0 14.62 0 0 Z M3 3 C3 15.54 3 28.08 3 41 C4.32 41 5.64 41 7 41 C6.979375 40.29875 6.95875 39.5975 6.9375 38.875 C7.06732258 32.90316119 7.71180183 29.58646628 12.0625 25.3125 C13.35203969 24.18160316 14.6573941 23.0673564 16 22 C18.13992361 24.03133742 19.83077216 26.07234902 21.4453125 28.5390625 C21.88230469 29.20164063 22.31929687 29.86421875 22.76953125 30.546875 C23.44048828 31.57554687 23.44048828 31.57554687 24.125 32.625 C26.79655424 37.02995999 26.79655424 37.02995999 30 41 C31.66617115 41.04063832 33.33388095 41.042721 35 41 C32.13630201 35.85471085 29.04420995 30.94156968 25.75 26.0625 C25.29109375 25.37865234 24.8321875 24.69480469 24.359375 23.99023438 C23.24171649 22.32538888 22.12116281 20.6624876 21 19 C22.57693411 15.10297892 25.11161502 12.7510227 28.125 9.875 C29.78723433 8.28810774 31.42224346 6.67090822 33 5 C33 4.34 33 3.68 33 3 C29.09487877 3.51830847 27.151164 4.3528811 24.40625 7.16796875 C23.76816406 7.81443359 23.13007813 8.46089844 22.47265625 9.12695312 C21.82167969 9.80693359 21.17070312 10.48691406 20.5 11.1875 C19.84902344 11.84814453 19.19804687 12.50878906 18.52734375 13.18945312 C14.79955251 17.00384962 11.43253201 20.88096159 8 25 C7.67 17.74 7.34 10.48 7 3 C5.68 3 4.36 3 3 3 Z " fill="#DAF2FE" transform="translate(187,183)"/>
<path d="M0 0 C3.824801 2.21601872 6.95942602 5.28721729 8.625 9.4375 C8.390625 11.57421875 8.390625 11.57421875 7.625 13.4375 C5.08003845 14.88193764 3.36743423 15.47992481 0.4375 15.3125 C-1.95710004 14.15648619 -2.27015826 12.79449572 -3.375 10.4375 C-6.09392564 9.53119145 -7.98843987 9.21548422 -10.8125 9.125 C-11.57433594 9.08761719 -12.33617187 9.05023438 -13.12109375 9.01171875 C-16.35431634 9.62250083 -17.45197459 10.79712129 -19.375 13.4375 C-19.93277179 16.57178835 -19.93277179 16.57178835 -19.75 19.9375 C-19.73710937 21.0615625 -19.72421875 22.185625 -19.7109375 23.34375 C-19.39285249 26.27309106 -18.99268376 28.00523789 -17.375 30.4375 C-13.90290481 32.1735476 -10.16254902 32.04036247 -6.375 31.4375 C-3.39380459 29.20773837 -3.39380459 29.20773837 -1.375 26.4375 C-0.715 25.7775 -0.055 25.1175 0.625 24.4375 C3.265 25.7575 5.905 27.0775 8.625 28.4375 C8.20536063 33.19341285 6.09216996 36.29537722 2.625 39.4375 C-3.13412845 42.89297707 -8.74801263 43.27780964 -15.375 42.4375 C-21.4990135 40.66974353 -26.09194121 36.87338422 -29.375 31.4375 C-32.25518076 24.41622985 -32.11647533 16.23062603 -29.5390625 9.13671875 C-23.91079949 -1.46118075 -10.6691136 -4.6125867 0 0 Z M-23.8046875 6.03125 C-28.18238365 12.06604018 -29.097743 18.63427047 -28 25.9296875 C-26.43870269 31.72600376 -23.41346087 35.23120672 -18.375 38.4375 C-12.93018355 40.25243882 -7.37354153 40.17770057 -2 38.1875 C0.59946458 36.45452362 2.65378499 34.86361079 4.625 32.4375 C4.625 31.4475 4.625 30.4575 4.625 29.4375 C3.635 29.1075 2.645 28.7775 1.625 28.4375 C0.03141674 29.66412652 0.03141674 29.66412652 -1.5 31.375 C-4.34294831 33.96497409 -6.13282945 34.90976602 -10 35 C-14.80284901 34.64877125 -17.61764837 33.06932651 -21.125 29.8125 C-23.67434688 24.96874093 -23.63461947 19.99521684 -22.75 14.6875 C-21.05398539 10.6787382 -20.04363593 8.85879972 -16.375 6.4375 C-11.64481235 5.62149287 -6.64189388 5.11882049 -2.3671875 7.60546875 C-0.99407099 8.83713356 0.32069038 10.13319038 1.625 11.4375 C2.615 11.1075 3.605 10.7775 4.625 10.4375 C2.37796172 5.94342344 0.18942047 3.59959391 -4.375 1.4375 C-11.51925894 0.55549272 -18.6859235 0.32508685 -23.8046875 6.03125 Z " fill="#E0F7FE" transform="translate(174.375,184.5625)"/>
<path d="M0 0 C3.3 0 6.6 0 10 0 C10 4.29 10 8.58 10 13 C10.66 12.67 11.32 12.34 12 12 C17.00326774 11.38012612 20.76448874 11.15058601 25 14.0625 C29.28392123 20.35450931 29.27058732 26.57414135 29.125 33.9375 C29.11597656 34.81212891 29.10695313 35.68675781 29.09765625 36.58789062 C29.0742957 38.72538064 29.03843247 40.86272786 29 43 C25.7 43 22.4 43 19 43 C18.93941406 41.73542969 18.87882812 40.47085938 18.81640625 39.16796875 C18.73199096 37.50780129 18.64734345 35.84764563 18.5625 34.1875 C18.52318359 33.35412109 18.48386719 32.52074219 18.44335938 31.66210938 C18.40146484 30.85966797 18.35957031 30.05722656 18.31640625 29.23046875 C18.27974854 28.49207764 18.24309082 27.75368652 18.20532227 26.99291992 C18.05157859 24.792505 18.05157859 24.792505 17 22 C15.02 22 13.04 22 11 22 C10.67 28.93 10.34 35.86 10 43 C6.7 43 3.4 43 0 43 C0 28.81 0 14.62 0 0 Z M3 3 C3 15.54 3 28.08 3 41 C4.32 41 5.64 41 7 41 C7.06058594 39.73542969 7.12117187 38.47085938 7.18359375 37.16796875 C7.26800904 35.50780129 7.35265655 33.84764563 7.4375 32.1875 C7.47681641 31.35412109 7.51613281 30.52074219 7.55664062 29.66210938 C7.59853516 28.85966797 7.64042969 28.05722656 7.68359375 27.23046875 C7.72025146 26.49207764 7.75690918 25.75368652 7.79467773 24.99291992 C8 23 8 23 9 20 C8.34 20 7.68 20 7 20 C7 14.39 7 8.78 7 3 C5.68 3 4.36 3 3 3 Z M12 15 C11.34 16.32 10.68 17.64 10 19 C11.258125 18.896875 12.51625 18.79375 13.8125 18.6875 C15.95703125 18.51171875 15.95703125 18.51171875 18 19 C21.60940138 23.13440522 21.53427352 27.58966598 21.6875 32.8125 C21.73874023 33.99489258 21.73874023 33.99489258 21.79101562 35.20117188 C21.87299875 37.13363119 21.93818845 39.06679035 22 41 C23.32 41 24.64 41 26 41 C26.08164159 38.3118751 26.14079668 35.626277 26.1875 32.9375 C26.21263672 32.18533203 26.23777344 31.43316406 26.26367188 30.65820312 C26.33291023 25.32684951 25.49039024 21.73355045 23 17 C21.21342243 14.78629949 21.21342243 14.78629949 18.8359375 14.8046875 C18.02382813 14.82789063 17.21171875 14.85109375 16.375 14.875 C15.14910156 14.90207031 15.14910156 14.90207031 13.8984375 14.9296875 C12.95871094 14.96449219 12.95871094 14.96449219 12 15 Z " fill="#D7EFFE" transform="translate(242,183)"/>
<path d="M0 0 C0.99 0.33 1.98 0.66 3 1 C3.02506235 4.92861947 3.04302799 8.85720679 3.05493164 12.78588867 C3.0623244 14.76547892 3.07504274 16.74504701 3.08789062 18.72460938 C3.1048353 25.41775445 2.88945811 31.95667752 2.19360352 38.61206055 C1.92029498 41.98309557 2.13019869 45.13106715 2.4375 48.5 C3 54.93670886 3 54.93670886 3 58 C1.68 58.66 0.36 59.32 -1 60 C-0.73958333 58.01432292 -0.47916667 56.02864583 -0.21875 54.04296875 C0.053233 51.84528294 0.053233 51.84528294 0 49 C-10.89 49 -21.78 49 -33 49 C-33 48.01 -33 47.02 -33 46 C-22.44 45.67 -11.88 45.34 -1 45 C-1.66 44.34 -2.32 43.68 -3 43 C-2.34 42.34 -1.68 41.68 -1 41 C-11.80347355 39.19942108 -23.18111601 39.45444514 -34 41 C-34.33 43.97 -34.66 46.94 -35 50 C-35.33 50 -35.66 50 -36 50 C-36.05383848 47.54137599 -36.09359038 45.0839245 -36.125 42.625 C-36.14175781 41.92632812 -36.15851562 41.22765625 -36.17578125 40.5078125 C-36.19344267 38.67102514 -36.10303261 36.83398037 -36 35 C-35.34 34.34 -34.68 33.68 -34 33 C-34 33.66 -34 34.32 -34 35 C-32.68 35.33 -31.36 35.66 -30 36 C-31.32 36 -32.64 36 -34 36 C-31.65466049 36.76956136 -31.65466049 36.76956136 -29 37 C-28.3661438 36.27623169 -28.3661438 36.27623169 -27.71948242 35.5378418 C-25.17048952 33.25811635 -23.1676741 33.65961022 -19.80078125 33.70703125 C-17.98803711 33.7215332 -17.98803711 33.7215332 -16.13867188 33.73632812 C-14.2447168 33.7740332 -14.2447168 33.7740332 -12.3125 33.8125 C-10.40114258 33.83280273 -10.40114258 33.83280273 -8.45117188 33.85351562 C-5.30035943 33.88891801 -2.15038955 33.9383021 1 34 C0.84630447 32.4087327 0.69105482 30.81761547 0.53515625 29.2265625 C0.40572632 27.8974585 0.40572632 27.8974585 0.27368164 26.54150391 C-0.03544767 23.67082052 -0.47698196 20.83924081 -1 18 C-0.34 18 0.32 18 1 18 C0.505 16.515 0.505 16.515 0 15 C-11.22 14.67 -22.44 14.34 -34 14 C-34 13.34 -34 12.68 -34 12 C-22.78 12 -11.56 12 0 12 C0 8.04 0 4.08 0 0 Z " fill="#020617" transform="translate(73,178)"/>
<path d="M0 0 C3.3 0 6.6 0 10 0 C10.33 7.26 10.66 14.52 11 22 C12.65 22 14.3 22 16 22 C17.61635488 19.13026116 18.2733418 16.95535797 18.4140625 13.671875 C18.45273437 12.87265625 18.49140625 12.0734375 18.53125 11.25 C18.5621875 10.425 18.593125 9.6 18.625 8.75 C18.66367187 7.90953125 18.70234375 7.0690625 18.7421875 6.203125 C18.83615836 4.13576618 18.91915564 2.06791373 19 0 C22.3 0 25.6 0 29 0 C29 10.23 29 20.46 29 31 C24.2046875 31.3403125 24.2046875 31.3403125 19.3125 31.6875 C17.81456909 31.80677856 17.81456909 31.80677856 16.28637695 31.9284668 C11.31787246 32.22732797 8.01217465 32.35012595 4 29 C0.35453819 24.963953 -0.13005082 21.32833476 -0.09765625 16.015625 C-0.09443359 15.08105469 -0.09121094 14.14648438 -0.08789062 13.18359375 C-0.07951172 12.21550781 -0.07113281 11.24742187 -0.0625 10.25 C-0.05798828 9.26644531 -0.05347656 8.28289062 -0.04882812 7.26953125 C-0.037065 4.84632806 -0.01913018 2.42315623 0 0 Z M3 3 C2.91835841 5.6881249 2.85920332 8.373723 2.8125 11.0625 C2.78736328 11.81466797 2.76222656 12.56683594 2.73632812 13.34179688 C2.66721984 18.66313494 3.43435206 22.30528291 6 27 C9.51824511 29.34549674 10.85775694 29.57991403 15 29 C17.87640616 26.62499209 17.87640616 26.62499209 20 24 C18.741875 24.20625 17.48375 24.4125 16.1875 24.625 C12.5985242 25.21335669 12.24926122 25.16617415 9 23 C7.6072332 19.07479103 7.65987174 14.87663627 7.4375 10.75 C7.39431641 10.00492188 7.35113281 9.25984375 7.30664062 8.4921875 C7.20103275 6.661651 7.10005799 4.83084824 7 3 C5.68 3 4.36 3 3 3 Z M22 3 C21.93941406 4.09699219 21.87882812 5.19398438 21.81640625 6.32421875 C21.73195502 7.77865654 21.64730934 9.23308305 21.5625 10.6875 C21.52318359 11.40873047 21.48386719 12.12996094 21.44335938 12.87304688 C21.21814322 16.66707282 20.87160695 20.28651492 20 24 C20.33 24 20.66 24 21 24 C21.33 25.65 21.66 27.3 22 29 C23.32 29 24.64 29 26 29 C26 20.42 26 11.84 26 3 C24.68 3 23.36 3 22 3 Z " fill="#DFF7FE" transform="translate(274,195)"/>
<path d="M0 0 C11.55 0 23.1 0 35 0 C35 3.3 35 6.6 35 10 C30.71 10 26.42 10 22 10 C22 20.89 22 31.78 22 43 C18.7 43 15.4 43 12 43 C12 32.11 12 21.22 12 10 C8.04 10 4.08 10 0 10 C0 6.7 0 3.4 0 0 Z M2 3 C2.33 4.32 2.66 5.64 3 7 C6.96 7 10.92 7 15 7 C15 18.22 15 29.44 15 41 C16.32 41 17.64 41 19 41 C19 29.78 19 18.56 19 7 C22.96 7 26.92 7 31 7 C31.33 5.68 31.66 4.36 32 3 C22.1 3 12.2 3 2 3 Z " fill="#D8F1FE" transform="translate(91,183)"/>
<path d="M0 0 C0.13504138 1.93559313 0.23201129 3.873872 0.3125 5.8125 C0.39951172 7.43091797 0.39951172 7.43091797 0.48828125 9.08203125 C0.32714844 10.04496094 0.16601562 11.00789062 0 12 C-2.48046875 13.69921875 -2.48046875 13.69921875 -5 15 C-5.83333333 18 -5.83333333 18 -5 21 C-3.7625 21.6496875 -3.7625 21.6496875 -2.5 22.3125 C0 24 0 24 0.5078125 26.07421875 C0.6269541 28.54044978 0.58878999 30.59954851 0 33 C-2.5 34.625 -2.5 34.625 -5 36 C-5.41725678 39.62599422 -5.41725678 39.62599422 -5 43 C-3.35 43.33 -1.7 43.66 0 44 C0.8886404 47.4737761 1.28458564 49.35593776 -0.1875 52.6875 C-1.95385217 54.94112173 -3.61460521 56.43715514 -6 58 C-5.87822312 59.91466367 -5.87822312 59.91466367 -5 62 C-3.35178756 63.03013277 -1.68496298 64.03114628 0 65 C0.33 65.99 0.66 66.98 1 68 C-1.64 68 -4.28 68 -7 68 C-11 61.08154506 -11 61.08154506 -11 57.3125 C-9.75844248 54.44139823 -8.06639526 52.33302691 -6 50 C-7.09686918 47.72188709 -8.19069512 45.73867706 -9.6875 43.6875 C-11.49072819 39.99517561 -11.05231517 37.9286433 -10 34 C-8.71937515 32.2925002 -7.3927289 30.61736259 -6 29 C-6 28.01 -6 27.02 -6 26 C-6.66 25.62875 -7.32 25.2575 -8 24.875 C-10.39931312 22.62564395 -10.39643249 21.88563878 -10.5625 18.6875 C-10.3726147 13.63489995 -8.54882085 11.46010033 -5 8 C-5.309375 7.401875 -5.61875 6.80375 -5.9375 6.1875 C-7 4 -7 4 -8 1 C-1.125 0 -1.125 0 0 0 Z " fill="#000319" transform="translate(236,160)"/>
<path d="M0 0 C3.3 0 6.6 0 10 0 C10 14.19 10 28.38 10 43 C6.7 43 3.4 43 0 43 C0 28.81 0 14.62 0 0 Z M3 3 C3 15.54 3 28.08 3 41 C4.32 41 5.64 41 7 41 C7 28.46 7 15.92 7 3 C5.68 3 4.36 3 3 3 Z " fill="#D9F2FE" transform="translate(129,183)"/>
<path d="M0 0 C0.33 0 0.66 0 1 0 C1.33 5.94 1.66 11.88 2 18 C2.33 16.35 2.66 14.7 3 13 C3.33 13 3.66 13 4 13 C4.02323137 21.9886965 4.04096994 30.97738256 4.05181217 39.9661026 C4.05701745 44.14049851 4.06407209 48.31487378 4.07543945 52.48925781 C4.08635233 56.52225445 4.09229456 60.55523131 4.09487724 64.58824158 C4.09671641 66.12231253 4.1003077 67.65638247 4.10573006 69.19044495 C4.15594041 83.99236124 4.15594041 83.99236124 3 91 C2.01 90.67 1.02 90.34 0 90 C-0.495 90.99 -0.495 90.99 -1 92 C-1.02312202 80.15234827 -1.04091437 68.30470186 -1.05181217 56.4570322 C-1.05704131 50.95629138 -1.06413951 45.45556595 -1.07543945 39.95483398 C-1.08626725 34.6510344 -1.0922766 29.34724965 -1.09487724 24.04343987 C-1.09673169 22.01514388 -1.10035267 19.98684874 -1.10573006 17.95855904 C-1.11293906 15.12803486 -1.113991 12.29757282 -1.11352539 9.46704102 C-1.11712067 8.61971909 -1.12071594 7.77239716 -1.12442017 6.8993988 C-1.11405216 1.11405216 -1.11405216 1.11405216 0 0 Z " fill="#040E2B" transform="translate(86,163)"/>
<path d="M0 0 C3.83265159 0.04927695 4.9907679 0.19677793 8.25 2.4375 C12.53392123 8.72950931 12.52058732 14.94914135 12.375 22.3125 C12.36597656 23.18712891 12.35695313 24.06175781 12.34765625 24.96289062 C12.3242957 27.10038064 12.28843247 29.23772786 12.25 31.375 C8.95 31.375 5.65 31.375 2.25 31.375 C2.18941406 30.13363281 2.12882812 28.89226562 2.06640625 27.61328125 C1.98196377 25.97134423 1.89731764 24.32941768 1.8125 22.6875 C1.77318359 21.87087891 1.73386719 21.05425781 1.69335938 20.21289062 C1.48101997 16.17844189 1.20552078 12.31752691 0.25 8.375 C-1.4 8.375 -3.05 8.375 -4.75 8.375 C-4.75 8.045 -4.75 7.715 -4.75 7.375 C-1.4375 7.0625 -1.4375 7.0625 2.25 7.375 C5.94800682 11.61089872 5.61099557 15.88031486 5.4375 21.1875 C5.42396484 21.97576172 5.41042969 22.76402344 5.39648438 23.57617188 C5.36133456 25.50941169 5.30753361 27.44229682 5.25 29.375 C6.57 29.375 7.89 29.375 9.25 29.375 C9.16228454 26.68606733 9.05532075 24.00014692 8.9375 21.3125 C8.91494141 20.56033203 8.89238281 19.80816406 8.86914062 19.03320312 C8.62764617 13.96181963 8.05037526 8.17537526 4.25 4.375 C2.77351124 4.27676004 1.29224583 4.24526481 -0.1875 4.25 C-0.99058594 4.24742187 -1.79367187 4.24484375 -2.62109375 4.2421875 C-4.80397931 4.23921674 -4.80397931 4.23921674 -6.75 5.375 C-5.65791272 0.53861346 -4.98371738 0.19168144 0 0 Z " fill="#E2F8FE" transform="translate(258.75,194.625)"/>
<path d="M0 0 C2.94013071 0.55127451 4.20636176 2.00893325 5.9375 4.36328125 C7.54204372 7.57236869 7.41768091 10.88196963 6.9375 14.36328125 C5.12248194 17.52275713 3.95526588 18.96153156 0.5625 20.30078125 C-2.86130266 20.38230036 -4.98770052 19.90068099 -8.0625 18.36328125 C-10.25065735 15.55970464 -11.1556892 13.66349249 -10.8984375 10.07421875 C-9.54196466 3.01596179 -7.85563477 -0.2743696 0 0 Z M-5.875 4.42578125 C-7.71400018 7.42625523 -7.36921285 9.92809738 -7.0625 13.36328125 C-5.42496318 16.40772761 -5.42496318 16.40772761 -3.1875 17.17578125 C-1.0407737 17.46568813 -1.0407737 17.46568813 1.125 16.92578125 C3.62992836 14.76636025 3.79611652 12.54647427 4.03515625 9.33984375 C4.050303 7.20770531 4.050303 7.20770531 2.8125 4.86328125 C1.00139799 3.16802181 1.00139799 3.16802181 -1.5625 2.92578125 C-4.04249925 3.20972343 -4.04249925 3.20972343 -5.875 4.42578125 Z " fill="#E0F4FE" transform="translate(325.0625,200.63671875)"/>
<path d="M0 0 C3.625 -0.1875 3.625 -0.1875 7 0 C6.34 0.53625 5.68 1.0725 5 1.625 C2.75920779 3.88797935 2.75920779 3.88797935 2.4375 7.0625 C2.623125 8.031875 2.80875 9.00125 3 10 C3.825 10.391875 4.65 10.78375 5.5 11.1875 C6.325 11.785625 7.15 12.38375 8 13 C8.46744228 16.69554369 8.28320499 20.29316141 8 24 C5.54101345 24.08076963 3.08466258 24.14037143 0.625 24.1875 C-0.07367188 24.21263672 -0.77234375 24.23777344 -1.4921875 24.26367188 C-3.5234375 24.29296875 -3.5234375 24.29296875 -7 24 C-7.66 23.01 -8.32 22.02 -9 21 C-5.37 20.67 -1.74 20.34 2 20 C2.33 18.68 2.66 17.36 3 16 C1.73247466 14.53747076 0.46171872 13.07720049 -0.84375 11.6484375 C-2.82256825 8.82728445 -2.43467596 6.29111797 -2 3 C-1.34 2.01 -0.68 1.02 0 0 Z " fill="#01000E" transform="translate(228,233)"/>
<path d="M0 0 C0.99 0.33 1.98 0.66 3 1 C3.02501955 4.94693009 3.04300863 8.89382842 3.05493164 12.84082031 C3.06233777 14.83139675 3.07505474 16.82195117 3.08789062 18.8125 C3.10589603 25.94263919 2.92522041 32.92576686 2 40 C0.08595567 36.47211656 -0.19087347 34.16106192 -0.0625 30.125 C0.01419569 25.94252852 -0.08733665 22.10698509 -1 18 C-0.34 18 0.32 18 1 18 C0.505 16.515 0.505 16.515 0 15 C-11.22 14.67 -22.44 14.34 -34 14 C-34 13.34 -34 12.68 -34 12 C-22.78 12 -11.56 12 0 12 C0 8.04 0 4.08 0 0 Z " fill="#030C20" transform="translate(73,178)"/>
<path d="M0 0 C9.24 0 18.48 0 28 0 C28 0.33 28 0.66 28 1 C19.3387414 2.25981943 10.72998757 2.09020653 2 2 C2.33 3.32 2.66 4.64 3 6 C6.96 6 10.92 6 15 6 C15.18451025 25.00455581 15.18451025 25.00455581 14 33 C13.67 33 13.34 33 13 33 C13 24.75 13 16.5 13 8 C8.71 8 4.42 8 0 8 C0 5.36 0 2.72 0 0 Z " fill="#E6F6FE" transform="translate(91,184)"/>
<path d="M0 0 C2 2 2 2 2 5.3125 C0.69308641 10.13174388 -0.99299454 11.18657063 -5 14 C-4.87822312 15.91466367 -4.87822312 15.91466367 -4 18 C-2.35178756 19.03013277 -0.68496298 20.03114628 1 21 C1.33 21.99 1.66 22.98 2 24 C-0.64 24 -3.28 24 -6 24 C-9.97441365 17.12579957 -9.97441365 17.12579957 -10.0625 13.25 C-8.64773379 10.25402449 -6.69230363 8.86390251 -4 7 C-4 7.66 -4 8.32 -4 9 C-3.01 9 -2.02 9 -1 9 C-0.67 6.03 -0.34 3.06 0 0 Z " fill="#07122A" transform="translate(235,204)"/>
<path d="M0 0 C5.61 0 11.22 0 17 0 C17.495 0.99 17.495 0.99 18 2 C16.02 2.33 14.04 2.66 12 3 C12 3.33 12 3.66 12 4 C-11.76 4 -35.52 4 -60 4 C-60 3.67 -60 3.34 -60 3 C-37.23 3 -14.46 3 9 3 C9 2.34 9 1.68 9 1 C6.03 1 3.06 1 0 1 C0 0.67 0 0.34 0 0 Z " fill="#000035" transform="translate(217,159)"/>
<path d="M0 0 C0.33 0 0.66 0 1 0 C1.33 10.56 1.66 21.12 2 32 C3.32 32 4.64 32 6 32 C6 29.36 6 26.72 6 24 C6.99 24 7.98 24 9 24 C9 27.3 9 30.6 9 34 C6.03 34 3.06 34 0 34 C0 22.78 0 11.56 0 0 Z " fill="#E7F9FF" transform="translate(130,192)"/>
<path d="M0 0 C1.33417969 -0.01836914 1.33417969 -0.01836914 2.6953125 -0.03710938 C7.23506045 -0.04727299 10.8835743 0.01780062 15 2.1875 C15 2.5175 15 2.8475 15 3.1875 C9.17011079 4.12444648 3.63641084 4.18812827 -2.25 3.8125 C-2.93513672 3.76939697 -3.62027344 3.72629395 -4.32617188 3.68188477 C-7.95384115 3.42308153 -11.45383689 2.99844428 -15 2.1875 C-15 1.8575 -15 1.5275 -15 1.1875 C-10.0350088 -0.10546646 -5.09273092 0.00369038 0 0 Z " fill="#000003" transform="translate(58,216.8125)"/>
<path d="M0 0 C3.625 -0.1875 3.625 -0.1875 7 0 C6.34 0.53625 5.68 1.0725 5 1.625 C2.72376213 3.88744631 2.72376213 3.88744631 2.625 7.125 C2.719279 10.12575284 2.719279 10.12575284 5 12 C4.01 12.495 4.01 12.495 3 13 C2.67 13.66 2.34 14.32 2 15 C-0.8611713 12.0494171 -1.94535757 10.52821019 -2.375 6.375 C-2 3 -2 3 0 0 Z " fill="#090F27" transform="translate(228,233)"/>
<path d="M0 0 C2.76223278 2.76223278 2.57856291 5.20706617 3 9 C4.65 9 6.3 9 8 9 C7.67 11.97 7.34 14.94 7 18 C6.01 18 5.02 18 4 18 C3.566875 16.6078125 3.566875 16.6078125 3.125 15.1875 C2.1125 11.90208333 2.1125 11.90208333 0 9 C-0.1953125 6.73828125 -0.1953125 6.73828125 -0.125 4.3125 C-0.10695312 3.50425781 -0.08890625 2.69601563 -0.0703125 1.86328125 C-0.04710937 1.24839844 -0.02390625 0.63351563 0 0 Z " fill="#01010B" transform="translate(227,195)"/>
<path d="M0 0 C0.99 0.33 1.98 0.66 3 1 C3.02501955 4.94693009 3.04300863 8.89382842 3.05493164 12.84082031 C3.06233777 14.83139675 3.07505474 16.82195117 3.08789062 18.8125 C3.10589603 25.94263919 2.92522041 32.92576686 2 40 C0.08595567 36.47211656 -0.19087347 34.16106192 -0.0625 30.125 C0.01419569 25.94252852 -0.08733665 22.10698509 -1 18 C-0.34 18 0.32 18 1 18 C0.7525 16.6078125 0.7525 16.6078125 0.5 15.1875 C-0.23700282 10.14266379 -0.08276815 5.08564289 0 0 Z " fill="#00072F" transform="translate(73,178)"/>
<path d="M0 0 C0 3.96 0 7.92 0 12 C-0.33 12 -0.66 12 -1 12 C-1.33 9.36 -1.66 6.72 -2 4 C-3.65 3.67 -5.3 3.34 -7 3 C-7 10.26 -7 17.52 -7 25 C-7.33 25 -7.66 25 -8 25 C-8 17.08 -8 9.16 -8 1 C-5 0 -5 0 0 0 Z " fill="#E6F8FF" transform="translate(196,183)"/>
<path d="M0 0 C6.93 0 13.86 0 21 0 C21.33 0.66 21.66 1.32 22 2 C17.03236233 2.58076766 12.0631453 3.08550509 7.0625 3.25 C5.99708984 3.28867188 5.99708984 3.28867188 4.91015625 3.328125 C3 3 3 3 0 0 Z " fill="#F4F5FC" transform="translate(238,229)"/>
<path d="M0 0 C1.98 0.99 3.96 1.98 6 3 C5.33501617 7.38889325 3.81242323 10.9811485 2 15 C0.68 15 -0.64 15 -2 15 C-2 17.97 -2 20.94 -2 24 C-2.33 24 -2.66 24 -3 24 C-3 20.7 -3 17.4 -3 14 C-1.35 13.67 0.3 13.34 2 13 C1.51515724 8.35413108 1.51515724 8.35413108 0 4 C0.99 4 1.98 4 3 4 C2.01 3.34 1.02 2.68 0 2 C0 1.34 0 0.68 0 0 Z " fill="#000122" transform="translate(23,210)"/>
<path d="M0 0 C1.23556641 0.01740234 1.23556641 0.01740234 2.49609375 0.03515625 C3.32238281 0.04417969 4.14867187 0.05320313 5 0.0625 C5.63808594 0.07410156 6.27617187 0.08570313 6.93359375 0.09765625 C6.93359375 0.42765625 6.93359375 0.75765625 6.93359375 1.09765625 C2.47859375 1.59265625 2.47859375 1.59265625 -2.06640625 2.09765625 C-2.06640625 5.39765625 -2.06640625 8.69765625 -2.06640625 12.09765625 C-0.08640625 12.59265625 -0.08640625 12.59265625 1.93359375 13.09765625 C2.26359375 12.43765625 2.59359375 11.77765625 2.93359375 11.09765625 C3.59359375 11.42765625 4.25359375 11.75765625 4.93359375 12.09765625 C4.93359375 12.75765625 4.93359375 13.41765625 4.93359375 14.09765625 C4.27359375 14.09765625 3.61359375 14.09765625 2.93359375 14.09765625 C2.93359375 16.73765625 2.93359375 19.37765625 2.93359375 22.09765625 C2.60359375 22.09765625 2.27359375 22.09765625 1.93359375 22.09765625 C1.93359375 19.78765625 1.93359375 17.47765625 1.93359375 15.09765625 C-0.54140625 14.10765625 -0.54140625 14.10765625 -3.06640625 13.09765625 C-3.09327178 11.11856227 -3.11274 9.13936654 -3.12890625 7.16015625 C-3.14050781 6.05800781 -3.15210937 4.95585937 -3.1640625 3.8203125 C-3.03217531 0.14329751 -3.03217531 0.14329751 0 0 Z " fill="#000229" transform="translate(23.06640625,158.90234375)"/>
<path d="M0 0 C2 2 2 2 2.375 5.8125 C2.29926621 9.97028498 0.96605135 12.03394865 -2 15 C-2.66 14.67 -3.32 14.34 -4 14 C-3.67 13.154375 -3.34 12.30875 -3 11.4375 C-1.93894046 7.79010784 -1.84890987 4.77725336 -2 1 C-1.34 0.67 -0.68 0.34 0 0 Z " fill="#D4ECFE" transform="translate(330,205)"/>
<path d="M0 0 C0.66 0.33 1.32 0.66 2 1 C2 2.98 2 4.96 2 7 C-0.97 6.505 -0.97 6.505 -4 6 C-3.67 5.34 -3.34 4.68 -3 4 C-5.31 3.67 -7.62 3.34 -10 3 C-10 2.67 -10 2.34 -10 2 C-9.04287109 1.90912109 -9.04287109 1.90912109 -8.06640625 1.81640625 C-6.82697266 1.69072266 -6.82697266 1.69072266 -5.5625 1.5625 C-4.73878906 1.48128906 -3.91507812 1.40007812 -3.06640625 1.31640625 C-1.01337975 1.21069185 -1.01337975 1.21069185 0 0 Z " fill="#030314" transform="translate(74,236)"/>
<path d="M0 0 C1.4540625 0.61875 1.4540625 0.61875 2.9375 1.25 C3.2675 2.24 3.5975 3.23 3.9375 4.25 C1.2975 4.25 -1.3425 4.25 -4.0625 4.25 C-4.3925 2.93 -4.7225 1.61 -5.0625 0.25 C-3.0625 -0.75 -3.0625 -0.75 0 0 Z " fill="#243549" transform="translate(233.0625,223.75)"/>
<path d="M0 0 C0.7425 0.495 1.485 0.99 2.25 1.5 C5.06318188 3.31923475 5.06318188 3.31923475 9 3 C8.67 3.99 8.34 4.98 8 6 C4.23375329 7.25541557 2.62811066 6.37061958 -1 5 C-0.67 3.35 -0.34 1.7 0 0 Z " fill="#E5FAFF" transform="translate(318,214)"/>
<path d="M0 0 C0.99 0.66 1.98 1.32 3 2 C2.67 4.64 2.34 7.28 2 10 C1.01 10 0.02 10 -1 10 C-0.979375 9.071875 -0.95875 8.14375 -0.9375 7.1875 C-0.84230396 3.97713989 -0.84230396 3.97713989 -2 1 C-1.34 0.67 -0.68 0.34 0 0 Z " fill="#02010B" transform="translate(233,182)"/>
<path d="M0 0 C0.33 0.66 0.66 1.32 1 2 C3.02463255 2.65213292 3.02463255 2.65213292 5 3 C3.68 3 2.36 3 1 3 C1.18433594 3.55171875 1.36867187 4.1034375 1.55859375 4.671875 C2.0918802 7.48460705 1.68538146 9.46535347 1.0625 12.25 C0.86785156 13.14203125 0.67320313 14.0340625 0.47265625 14.953125 C0.31667969 15.62859375 0.16070312 16.3040625 0 17 C-0.33 17 -0.66 17 -1 17 C-1.02691685 14.54159395 -1.04679802 12.08348118 -1.0625 9.625 C-1.07087891 8.92632812 -1.07925781 8.22765625 -1.08789062 7.5078125 C-1.11328125 2.2265625 -1.11328125 2.2265625 0 0 Z " fill="#000127" transform="translate(38,211)"/>
<path d="M0 0 C0 0.33 0 0.66 0 1 C2.31 1.33 4.62 1.66 7 2 C6.67 2.66 6.34 3.32 6 4 C0.72 3.67 -4.56 3.34 -10 3 C-5.78492722 -0.16130459 -4.93928888 -0.3367697 0 0 Z " fill="#000126" transform="translate(85,255)"/>
<path d="M0 0 C0.66 0 1.32 0 2 0 C1.67 1.32 1.34 2.64 1 4 C-0.45792884 4.05399736 -1.91642712 4.09279177 -3.375 4.125 C-4.18710938 4.14820313 -4.99921875 4.17140625 -5.8359375 4.1953125 C-8 4 -8 4 -10 2 C-6.7 2 -3.4 2 0 2 C0 1.34 0 0.68 0 0 Z " fill="#000026" transform="translate(74,245)"/>
<path d="M0 0 C1.134375 0.020625 2.26875 0.04125 3.4375 0.0625 C3.1075 1.0525 2.7775 2.0425 2.4375 3.0625 C1.468125 3.18625 0.49875 3.31 -0.5 3.4375 C-1.510625 3.64375 -2.52125 3.85 -3.5625 4.0625 C-3.8925 4.7225 -4.2225 5.3825 -4.5625 6.0625 C-5.2225 5.7325 -5.8825 5.4025 -6.5625 5.0625 C-4.14811644 0.07277397 -4.14811644 0.07277397 0 0 Z " fill="#CDE9FD" transform="translate(256.5625,200.9375)"/>
<path d="M0 0 C2.62901288 1.52206009 4.84365964 2.84365964 7 5 C6.34 5 5.68 5 5 5 C5.33 5.99 5.66 6.98 6 8 C1.125 6.125 1.125 6.125 0 5 C-0.04063832 3.33382885 -0.042721 1.66611905 0 0 Z " fill="#081128" transform="translate(226,178)"/>
<path d="M0 0 C1.5 1 1.5 1 3 3 C3.27345479 5.71846235 3.13491285 8.25677199 3 11 C2.34 11 1.68 11 1 11 C-0.98362069 8.08291076 -0.9876191 6.87619096 -0.625 3.25 C-0.41875 2.1775 -0.2125 1.105 0 0 Z " fill="#D4EDFF" transform="translate(315,206)"/>
<path d="M0 0 C2 1 2 1 2.9375 3.375 C3.98373709 5.95982105 4.92113535 7.2046169 7 9 C6.21625 8.79375 5.4325 8.5875 4.625 8.375 C3.75875 8.25125 2.8925 8.1275 2 8 C1.34 8.66 0.68 9.32 0 10 C0 6.7 0 3.4 0 0 Z " fill="#000423" transform="translate(20,183)"/>
<path d="M0 0 C2.64 0 5.28 0 8 0 C8 0.66 8 1.32 8 2 C6.02 2.33 4.04 2.66 2 3 C1.67 4.65 1.34 6.3 1 8 C0.67 8 0.34 8 0 8 C0 5.36 0 2.72 0 0 Z " fill="#EAF6FD" transform="translate(275,196)"/>
<path d="M0 0 C0.33 0 0.66 0 1 0 C1.16858098 2.0831793 1.33479255 4.16655044 1.5 6.25 C1.5928125 7.41015625 1.685625 8.5703125 1.78125 9.765625 C1.94404644 12.17268658 2 14.58743951 2 17 C1.34 17 0.68 17 0 17 C0 11.39 0 5.78 0 0 Z " fill="#BDDEFD" transform="translate(249,186)"/>
<path d="M0 0 C0.9765625 6.0546875 0.9765625 6.0546875 1 8 C0.34 8.66 -0.32 9.32 -1 10 C-1.433125 8.576875 -1.433125 8.576875 -1.875 7.125 C-2.76825109 3.94788422 -2.76825109 3.94788422 -5 2 C-1.125 0 -1.125 0 0 0 Z " fill="#010C2E" transform="translate(75,219)"/>
<path d="M0 0 C0.99 0.495 0.99 0.495 2 1 C2 2.98 2 4.96 2 7 C3.32 7.66 4.64 8.32 6 9 C4 10 4 10 0 9 C0 6.03 0 3.06 0 0 Z " fill="#010007" transform="translate(21,205)"/>
<path d="M0 0 C0.66 0.33 1.32 0.66 2 1 C2 1.66 2 2.32 2 3 C1.34 3 0.68 3 0 3 C-0.33 4.98 -0.66 6.96 -1 9 C-1.33 9 -1.66 9 -2 9 C-2.66 6.69 -3.32 4.38 -4 2 C-2.68 2 -1.36 2 0 2 C0 1.34 0 0.68 0 0 Z " fill="#000022" transform="translate(27,233)"/>
<path d="M0 0 C1.32 0.66 2.64 1.32 4 2 C4 2.66 4 3.32 4 4 C1.36 4.33 -1.28 4.66 -4 5 C-4.33 4.34 -4.66 3.68 -5 3 C-3.02 3 -1.04 3 1 3 C0.67 2.01 0.34 1.02 0 0 Z " fill="#F1FCFC" transform="translate(315,221)"/>
<path d="M0 0 C0.66 0 1.32 0 2 0 C2.33 1.65 2.66 3.3 3 5 C1.35 6.32 -0.3 7.64 -2 9 C-1.34 6.03 -0.68 3.06 0 0 Z " fill="#00020C" transform="translate(87,241)"/>
<path d="M0 0 C1.485 0.99 1.485 0.99 3 2 C2.67 2.66 2.34 3.32 2 4 C1.34 2.68 0.68 1.36 0 0 Z " fill="#C1FFFF" transform="translate(216,219)"/>
<path d="M0 0 C0.33 0 0.66 0 1 0 C1 1.65 1 3.3 1 5 C0.67 5 0.34 5 0 5 C0 3.35 0 1.7 0 0 Z " fill="#BBFFFF" transform="translate(279,212)"/>
<path d="M0 0 C0.99 0.495 0.99 0.495 2 1 C1.67 1.66 1.34 2.32 1 3 C0.67 2.01 0.34 1.02 0 0 Z " fill="#AAFFFF" transform="translate(212,213)"/>
<path d="M0 0 C0.66 0 1.32 0 2 0 C1.67 0.66 1.34 1.32 1 2 C0.67 1.34 0.34 0.68 0 0 Z " fill="#D4FFFF" transform="translate(208,208)"/>
<path d="" fill="#0000FF" transform="translate(0,0)"/>
<path d="" fill="#0000FF" transform="translate(0,0)"/>
<path d="" fill="#0000FF" transform="translate(0,0)"/>
<path d="" fill="#0000FF" transform="translate(0,0)"/>
<path d="" fill="#0000FF" transform="translate(0,0)"/>
<path d="" fill="#0000FF" transform="translate(0,0)"/>
<path d="" fill="#0000FF" transform="translate(0,0)"/>
<path d="" fill="#0000FF" transform="translate(0,0)"/>
<path d="" fill="#0000FF" transform="translate(0,0)"/>
<path d="" fill="#0000FF" transform="translate(0,0)"/>
<path d="" fill="#0000FF" transform="translate(0,0)"/>
<path d="" fill="#0000FF" transform="translate(0,0)"/>
<path d="" fill="#0000FF" transform="translate(0,0)"/>
<path d="" fill="#0000FF" transform="translate(0,0)"/>
<path d="" fill="#0000FF" transform="translate(0,0)"/>
<path d="" fill="#0000FF" transform="translate(0,0)"/>
<path d="" fill="#0000FF" transform="translate(0,0)"/>
<path d="" fill="#0000FF" transform="translate(0,0)"/>
<path d="" fill="#0000FF" transform="translate(0,0)"/>
<path d="" fill="#0000FF" transform="translate(0,0)"/>
<path d="" fill="#0000FF" transform="translate(0,0)"/>
<path d="" fill="#0000FF" transform="translate(0,0)"/>
<path d="" fill="#0000FF" transform="translate(0,0)"/>
<path d="" fill="#0000FF" transform="translate(0,0)"/>
<path d="" fill="#0000FF" transform="translate(0,0)"/>
<path d="" fill="#0000FF" transform="translate(0,0)"/>
<path d="" fill="#0000FF" transform="translate(0,0)"/>
<path d="" fill="#0000FF" transform="translate(0,0)"/>
<path d="" fill="#0000FF" transform="translate(0,0)"/>
<path d="" fill="#0000FF" transform="translate(0,0)"/>
<path d="" fill="#0000FF" transform="translate(0,0)"/>
<path d="" fill="#0000FF" transform="translate(0,0)"/>
<path d="" fill="#0000FF" transform="translate(0,0)"/>
<path d="" fill="#0000FF" transform="translate(0,0)"/>
<path d="" fill="#0000FF" transform="translate(0,0)"/>
<path d="" fill="#0000FF" transform="translate(0,0)"/>
<path d="" fill="#0000FF" transform="translate(0,0)"/>
<path d="" fill="#0000FF" transform="translate(0,0)"/>
<path d="" fill="#0000FF" transform="translate(0,0)"/>
<path d="" fill="#FFFFFF" transform="translate(0,0)"/>
<path d="" fill="#BFFFFF" transform="translate(0,0)"/>
<path d="" fill="#AAFFFF" transform="translate(0,0)"/>
<path d="" fill="#0000FF" transform="translate(0,0)"/>
<path d="" fill="#AAFFFF" transform="translate(0,0)"/>
<path d="" fill="#FFFFFF" transform="translate(0,0)"/>
<path d="" fill="#FFFFFF" transform="translate(0,0)"/>
<path d="" fill="#BFFFFF" transform="translate(0,0)"/>
<path d="" fill="#0000FF" transform="translate(0,0)"/>
<path d="" fill="#0000FF" transform="translate(0,0)"/>
<path d="" fill="#0000FF" transform="translate(0,0)"/>
<path d="" fill="#0000FF" transform="translate(0,0)"/>
<path d="" fill="#0000FF" transform="translate(0,0)"/>
<path d="" fill="#0000FF" transform="translate(0,0)"/>
<path d="" fill="#0000FF" transform="translate(0,0)"/>
<path d="" fill="#0000FF" transform="translate(0,0)"/>
<path d="" fill="#0000FF" transform="translate(0,0)"/>
<path d="" fill="#0000FF" transform="translate(0,0)"/>
<path d="" fill="#0000FF" transform="translate(0,0)"/>
<path d="" fill="#0000FF" transform="translate(0,0)"/>
<path d="" fill="#0000FF" transform="translate(0,0)"/>
<path d="" fill="#0000FF" transform="translate(0,0)"/>
<path d="" fill="#0000FF" transform="translate(0,0)"/>
<path d="" fill="#0000FF" transform="translate(0,0)"/>
<path d="" fill="#0000FF" transform="translate(0,0)"/>
<path d="" fill="#0000FF" transform="translate(0,0)"/>
<path d="" fill="#0000FF" transform="translate(0,0)"/>
<path d="" fill="#0000FF" transform="translate(0,0)"/>
<path d="" fill="#0000FF" transform="translate(0,0)"/>
<path d="" fill="#0000FF" transform="translate(0,0)"/>
<path d="" fill="#0000FF" transform="translate(0,0)"/>
<path d="" fill="#0000FF" transform="translate(0,0)"/>
<path d="" fill="#0000FF" transform="translate(0,0)"/>
<path d="" fill="#0000FF" transform="translate(0,0)"/>
<path d="" fill="#0000FF" transform="translate(0,0)"/>
<path d="" fill="#0000FF" transform="translate(0,0)"/>
<path d="" fill="#0000FF" transform="translate(0,0)"/>
<path d="" fill="#0000FF" transform="translate(0,0)"/>
<path d="" fill="#0000FF" transform="translate(0,0)"/>
<path d="" fill="#0000FF" transform="translate(0,0)"/>
<path d="" fill="#0000FF" transform="translate(0,0)"/>
<path d="" fill="#0000FF" transform="translate(0,0)"/>
<path d="" fill="#0000FF" transform="translate(0,0)"/>
<path d="" fill="#0000FF" transform="translate(0,0)"/>
</svg>
